<?xml version="1.0" encoding="UTF-8"?><svg id="Layer_2" xmlns="http://www.w3.org/2000/svg" viewBox="0 0 2100.35 588.13"><defs><style>.cls-1{opacity:.1;}.cls-2{fill:#f2f2f2;}.cls-2,.cls-3,.cls-4,.cls-5,.cls-6,.cls-7,.cls-8,.cls-9,.cls-10,.cls-11,.cls-12,.cls-13{stroke-width:0px;}.cls-3{fill:#2f2e41;}.cls-4{fill:#3f3d56;}.cls-5{fill:#cacaca;}.cls-6{fill:#ccc;}.cls-7{fill:#a0616a;}.cls-8{fill:#fff;}.cls-9{fill:#e4e4e4;}.cls-10{fill:#ffb8b8;}.cls-11{fill:#ffb6b6;}.cls-12{fill:#fcb614;}.cls-13{fill:#e6e6e6;}</style></defs><g id="Layer_1-2"><g class="cls-1"><path class="cls-12" d="M2084.24,272.73c-22.26-38.44-61.09-57.04-97.82-71.05-139.7-53.28-288.25-8.68-430.81-2.84-34.81,1.42-73.89.61-105.92-4.44-31.66-4.99-68.9-16.43-101.41-29.48-65.27-26.19-126.34-62.92-192.3-95.19-34.47-16.86-69.34-32.64-105.43-44.3-37.99-12.27-77.21-19.61-116.53-23.17-79.78-7.21-160.44,3.48-238.48,22.67-103.56,25.45-203.06,67.98-302.44,109.33-72.17,30.03-145.13,57.45-218.07,84.9-62.25,23.42-124.62,43.42-157.56,115.33-28.91,63.11-22.37,149.21,22.93,200.29,28.1,31.67,65.68,40.93,103.62,44.19,38.34,3.3,76.89,5.19,115.33,6.21,79.84,2.12,160.89-2.37,238.53-25.45,74.84-22.24,143.33-67.77,219.94-82.7,72.6-14.15,150.26.83,223.23,19.71,78.18,20.23,155.28,44.43,234.67,57.91,82.46,14.01,165.54,21.07,248.77,25.4,161.48,8.4,329.09,23.82,484.65-37.62,69.36-27.39,151.75-65.16,181.76-148.99,13.54-37.82,13.54-85.83-6.67-120.7ZM62.93,402.68c-.05.34-.11.7-.18,1.11.08-.53.16-1.06.23-1.6.03-.17.04-.34.07-.5,0-.08.02-.16.03-.24.02-.14.03-.28.06-.42,0-.02,0-.03,0-.04.02-.11.03-.22.05-.33.02-.1.03-.19.04-.28,0-.03,0-.07.02-.1,0-.05.02-.07.02-.08,0,.1-.1.79-.36,2.48Z"/><path class="cls-12" d="M63.28,400.2c0,.1-.1.79-.36,2.48.02-.16.03-.33.05-.49.03-.17.04-.34.07-.5,0-.08.02-.16.03-.24.02-.14.03-.28.06-.42,0-.02,0-.03,0-.04.02-.11.03-.22.05-.33.02-.1.03-.19.04-.28,0-.03,0-.07.02-.1,0-.05.02-.07.02-.08Z"/></g><path class="cls-13" d="M111.5,194.9c1.24-13.31,4.65-26.32,10.1-38.52,1.52-3.4,3.19-6.72,5.02-9.96.2-.36.06-.81-.3-1.01-.34-.19-.77-.07-.98.26-6.64,11.82-11.29,24.65-13.77,37.98-.69,3.72-1.21,7.47-1.55,11.25-.09.95,1.4.95,1.49,0Z"/><circle class="cls-13" cx="130.22" cy="139.39" r="9.41"/><path class="cls-13" d="M112.47,195.15c.8-8.63,3.02-17.07,6.55-24.99.99-2.2,2.07-4.36,3.26-6.46.13-.23.04-.53-.2-.65-.22-.12-.5-.05-.64.17-4.31,7.67-7.32,15.99-8.93,24.64-.45,2.41-.78,4.85-1.01,7.3-.06.62.91.61.96,0Z"/><circle class="cls-13" cx="124.61" cy="159.14" r="6.11"/><path class="cls-13" d="M111.25,194.57c-4.68-7.3-8.12-15.32-10.2-23.73-.58-2.34-1.05-4.71-1.41-7.1-.04-.26-.29-.44-.56-.4-.25.04-.42.27-.4.52,1.32,8.7,4.06,17.12,8.11,24.92,1.13,2.18,2.36,4.3,3.69,6.37.33.52,1.09-.07.76-.59Z"/><circle class="cls-13" cx="98.68" cy="158.71" r="6.11"/><path class="cls-2" d="M92.5,199.97v-12c0-2.48,2.02-4.5,4.5-4.5h28c2.48,0,4.5,2.02,4.5,4.5v12c0,2.48-2.02,4.5-4.5,4.5h-28c-2.48,0-4.5-2.02-4.5-4.5Z"/><path class="cls-2" d="M124,123.47h-12c-2.48,0-4.5-2.02-4.5-4.5v-49c0-2.48,2.02-4.5,4.5-4.5h12c2.48,0,4.5,2.02,4.5,4.5v49c0,2.48-2.02,4.5-4.5,4.5Z"/><rect class="cls-6" x="108" y="74.97" width="20" height="4"/><rect class="cls-6" x="108" y="105.97" width="20" height="4"/><path class="cls-2" d="M154,123.47h-12c-2.48,0-4.5-2.02-4.5-4.5v-49c0-2.48,2.02-4.5,4.5-4.5h12c2.48,0,4.5,2.02,4.5,4.5v49c0,2.48-2.02,4.5-4.5,4.5Z"/><rect class="cls-6" x="138" y="74.97" width="20" height="4"/><rect class="cls-6" x="138" y="105.97" width="20" height="4"/><path class="cls-2" d="M184,123.47h-12c-2.48,0-4.5-2.02-4.5-4.5v-49c0-2.48,2.02-4.5,4.5-4.5h12c2.48,0,4.5,2.02,4.5,4.5v49c0,2.48-2.02,4.5-4.5,4.5Z"/><rect class="cls-6" x="168" y="74.97" width="20" height="4"/><rect class="cls-6" x="168" y="105.97" width="20" height="4"/><path class="cls-2" d="M200,204.47h-12c-2.48,0-4.5-2.02-4.5-4.5v-49c0-2.48,2.02-4.5,4.5-4.5h12c2.48,0,4.5,2.02,4.5,4.5v49c0,2.48-2.02,4.5-4.5,4.5Z"/><rect class="cls-6" x="184" y="155.97" width="20" height="4"/><rect class="cls-6" x="184" y="186.97" width="20" height="4"/><path class="cls-2" d="M230,204.47h-12c-2.48,0-4.5-2.02-4.5-4.5v-49c0-2.48,2.02-4.5,4.5-4.5h12c2.48,0,4.5,2.02,4.5,4.5v49c0,2.48-2.02,4.5-4.5,4.5Z"/><rect class="cls-6" x="214" y="155.97" width="20" height="4"/><rect class="cls-6" x="214" y="186.97" width="20" height="4"/><path class="cls-2" d="M260,204.47h-12c-2.48,0-4.5-2.02-4.5-4.5v-49c0-2.48,2.02-4.5,4.5-4.5h12c2.48,0,4.5,2.02,4.5,4.5v49c0,2.48-2.02,4.5-4.5,4.5Z"/><rect class="cls-6" x="244" y="155.97" width="20" height="4"/><rect class="cls-6" x="244" y="186.97" width="20" height="4"/><path class="cls-2" d="M121,285.47h-12c-2.48,0-4.5-2.02-4.5-4.5v-49c0-2.48,2.02-4.5,4.5-4.5h12c2.48,0,4.5,2.02,4.5,4.5v49c0,2.48-2.02,4.5-4.5,4.5Z"/><rect class="cls-6" x="105" y="236.97" width="20" height="4"/><rect class="cls-6" x="105" y="267.97" width="20" height="4"/><path class="cls-2" d="M151,285.47h-12c-2.48,0-4.5-2.02-4.5-4.5v-49c0-2.48,2.02-4.5,4.5-4.5h12c2.48,0,4.5,2.02,4.5,4.5v49c0,2.48-2.02,4.5-4.5,4.5Z"/><rect class="cls-6" x="135" y="236.97" width="20" height="4"/><rect class="cls-6" x="135" y="267.97" width="20" height="4"/><path class="cls-2" d="M181,285.47h-12c-2.48,0-4.5-2.02-4.5-4.5v-49c0-2.48,2.02-4.5,4.5-4.5h12c2.48,0,4.5,2.02,4.5,4.5v49c0,2.48-2.02,4.5-4.5,4.5Z"/><rect class="cls-6" x="165" y="236.97" width="20" height="4"/><rect class="cls-6" x="165" y="267.97" width="20" height="4"/><path class="cls-2" d="M214,123.47h-12c-2.48,0-4.5-2.02-4.5-4.5v-49c0-2.48,2.02-4.5,4.5-4.5h12c2.48,0,4.5,2.02,4.5,4.5v49c0,2.48-2.02,4.5-4.5,4.5Z"/><rect class="cls-6" x="198" y="74.97" width="20" height="4"/><rect class="cls-6" x="198" y="105.97" width="20" height="4"/><path class="cls-2" d="M244,123.47h-12c-2.48,0-4.5-2.02-4.5-4.5v-49c0-2.48,2.02-4.5,4.5-4.5h12c2.48,0,4.5,2.02,4.5,4.5v49c0,2.48-2.02,4.5-4.5,4.5Z"/><rect class="cls-6" x="228" y="74.97" width="20" height="4"/><rect class="cls-6" x="228" y="105.97" width="20" height="4"/><path class="cls-2" d="M274,123.47h-12c-2.48,0-4.5-2.02-4.5-4.5v-49c0-2.48,2.02-4.5,4.5-4.5h12c2.48,0,4.5,2.02,4.5,4.5v49c0,2.48-2.02,4.5-4.5,4.5Z"/><rect class="cls-6" x="258" y="74.97" width="20" height="4"/><rect class="cls-6" x="258" y="105.97" width="20" height="4"/><path class="cls-2" d="M304,123.47h-12c-2.48,0-4.5-2.02-4.5-4.5v-49c0-2.48,2.02-4.5,4.5-4.5h12c2.48,0,4.5,2.02,4.5,4.5v49c0,2.48-2.02,4.5-4.5,4.5Z"/><rect class="cls-6" x="288" y="74.97" width="20" height="4"/><rect class="cls-6" x="288" y="105.97" width="20" height="4"/><path class="cls-6" d="M348.94,124.97H63.94c-.55,0-1-.45-1-1s.45-1,1-1h285c.55,0,1,.45,1,1s-.45,1-1,1Z"/><path class="cls-6" d="M348.94,205.97H63.94c-.55,0-1-.45-1-1s.45-1,1-1h285c.55,0,1,.45,1,1s-.45,1-1,1Z"/><path class="cls-6" d="M348.94,286.97H63.94c-.55,0-1-.45-1-1s.45-1,1-1h285c.55,0,1,.45,1,1s-.45,1-1,1Z"/><path class="cls-6" d="M332.06,443.96c0-7.73-29.1-14-65-14s-65,6.27-65,14c0,4.96,11.96,9.31,30,11.79v76.71c0,3.59,2.91,6.5,6.5,6.5s6.5-2.91,6.5-6.5v-75.32c6.87.53,14.28.82,22,.82s15.13-.29,22-.82v75.32c0,3.59,2.91,6.5,6.5,6.5s6.5-2.91,6.5-6.5v-76.71c18.04-2.49,30-6.84,30-11.79Z"/><polygon class="cls-7" points="319.56 526.38 331.82 526.38 337.65 479.09 319.55 479.09 319.56 526.38"/><path class="cls-3" d="M355.46,537.76h-38.53s0-14.89,0-14.89h23.64c8.22,0,14.89,6.66,14.89,14.89h0Z"/><polygon class="cls-7" points="338.69 519.54 350.39 515.87 341.8 469 324.54 474.42 338.69 519.54"/><path class="cls-3" d="M376.36,519.65l-36.76,11.54h0l-4.46-14.2h0l22.56-7.08c7.84-2.46,16.2,1.9,18.66,9.75h0Z"/><path class="cls-3" d="M330.49,497.77l-22.43-58.87c-5.03,1.18-47.23,10.52-61.36-4.53-4.84-5.16-5.79-12.63-2.81-22.21l8.25-10.36h.26c3.12.18,76.44,4.29,81.46,26.4,4.24,18.64,11.98,53.41,14.25,63.62.48,2.19-.72,4.39-2.81,5.18l-9.02,3.38c-.5.19-1.04.29-1.57.29-1.87,0-3.54-1.15-4.21-2.9Z"/><path class="cls-3" d="M317.49,504.77l-22.43-58.87c-5.03,1.18-47.23,10.52-61.36-4.53-4.84-5.16-5.79-12.63-2.81-22.21l8.25-10.36h.26c3.12.18,76.44,4.29,81.46,26.4,4.24,18.64,11.98,53.41,14.25,63.62.48,2.19-.72,4.39-2.81,5.18l-9.02,3.38c-.5.19-1.04.29-1.57.29-1.87,0-3.54-1.15-4.21-2.9Z"/><path class="cls-7" d="M347.8,363.65c-.33.44-.63.91-.88,1.4l-49.32,5.2-7.1-9.73-16.09,8.79,13.94,23.62,60.49-15.42c4.15,4.05,10.8,3.96,14.84-.19,4.05-4.15,3.96-10.8-.19-14.84s-10.8-3.96-14.84.19c-.3.31-.59.64-.85.99h0Z"/><path class="cls-12" d="M230.58,422.27c-1.38-.99-2.08-2.67-1.82-4.35,2.78-18.34-.42-44.62-3.59-63.43-2.3-13.5,6.78-26.31,20.28-28.61,2.41-.41,4.86-.46,7.28-.16,3.34.44,6.65,1.09,9.91,1.95h0c11.15,2.81,18.87,12.97,18.58,24.47-.47,18.15,3.21,40.81,4.82,49.7.22,1.24-.08,2.51-.83,3.51-.74.99-1.86,1.63-3.1,1.75-17.81,1.82-37.01,10.5-46.87,15.52-.63.33-1.34.5-2.05.5-.94,0-1.85-.3-2.61-.86Z"/><path class="cls-12" d="M278.65,374.96c-1.11-.44-2-1.3-2.47-2.4l-9.93-22.94c-2.52-5.83.16-12.6,5.99-15.12,5.83-2.52,12.6.16,15.12,5.99l9.93,22.94c.98,2.28-.06,4.93-2.34,5.92l-12.85,5.56c-1.09.48-2.33.5-3.44.05h0Z"/><path class="cls-7" d="M300.8,361.65c-.33.44-.63.91-.88,1.4l-49.32,5.2-7.1-9.73-16.09,8.79,13.94,23.62,60.49-15.42c4.15,4.05,10.8,3.96,14.84-.19,4.05-4.15,3.96-10.8-.19-14.84s-10.8-3.96-14.84.19c-.3.31-.59.64-.85.99h0Z"/><path class="cls-12" d="M231.65,375.96c-1.11-.44-2-1.3-2.47-2.4l-9.93-22.94c-2.53-5.83.15-12.6,5.97-15.13,5.83-2.53,12.6.15,15.13,5.97,0,0,0,.01,0,.02l9.93,22.94c.98,2.28-.06,4.93-2.34,5.92l-12.85,5.56c-1.09.48-2.33.5-3.44.05h0Z"/><circle class="cls-7" cx="250.9" cy="293.37" r="24.56"/><path class="cls-3" d="M233.34,310.22c-.38-1.12.21-2.33,1.33-2.71.17-.06.35-.09.53-.11,1.34.07,2.6.69,3.48,1.71.89,1.02,1.92,1.91,3.07,2.64,1.19.6,2.8.51,3.48-.63.64-1.07.2-2.51-.18-3.75-.98-3.17-1.53-6.45-1.63-9.77-.11-3.7.41-7.56,2.46-10.45,2.64-3.72,7.37-5.14,11.85-5.04s8.88,1.48,13.31,2.36c1.53.3,3.33.46,4.35-.73,1.09-1.26.69-3.3.23-5-1.2-4.42-2.48-8.98-5.27-12.55-3.02-3.71-7.33-6.13-12.06-6.79-4.55-.56-9.16-.04-13.46,1.53-7.01,2.21-13.18,6.51-17.68,12.32-4.64,6.18-6.65,13.95-5.58,21.6,1.04,6.67,4.58,12.69,9.89,16.85l1.91-1.48Z"/><path class="cls-4" d="M139.56,369.35c1.24-13.31,4.65-26.32,10.1-38.52,1.52-3.39,3.19-6.72,5.02-9.96.2-.36.06-.81-.3-1.01-.34-.19-.77-.07-.98.26-6.64,11.82-11.29,24.65-13.77,37.98-.69,3.72-1.21,7.47-1.55,11.25-.09.95,1.4.95,1.49,0Z"/><circle class="cls-12" cx="158.28" cy="313.84" r="9.41"/><path class="cls-4" d="M140.52,369.6c.8-8.63,3.02-17.07,6.55-24.99.99-2.2,2.07-4.36,3.26-6.46.13-.23.04-.53-.2-.65-.22-.12-.5-.05-.64.17-4.31,7.67-7.32,15.99-8.93,24.64-.45,2.41-.78,4.85-1.01,7.3-.06.62.91.61.96,0Z"/><circle class="cls-12" cx="152.67" cy="333.59" r="6.11"/><path class="cls-4" d="M139.31,369.02c-4.68-7.3-8.12-15.32-10.2-23.73-.58-2.34-1.05-4.71-1.41-7.1-.04-.26-.29-.44-.56-.4-.25.04-.42.27-.4.52,1.32,8.7,4.06,17.12,8.11,24.92,1.13,2.18,2.36,4.3,3.69,6.37.33.52,1.09-.07.76-.59h0Z"/><circle class="cls-12" cx="126.73" cy="333.16" r="6.11" transform="translate(-32.21 14.11) rotate(-5.65)"/><path class="cls-6" d="M120.56,374.43v-12c0-2.48,2.02-4.5,4.5-4.5h28c2.48,0,4.5,2.02,4.5,4.5v12c0,2.48-2.02,4.5-4.5,4.5h-28c-2.48,0-4.5-2.02-4.5-4.5Z"/><path class="cls-6" d="M292.56,370.96h79c1.93,0,3.5,1.57,3.5,3.5h0c0,1.93-1.57,3.5-3.5,3.5h-79c-1.93,0-3.5-1.57-3.5-3.5h0c0-1.93,1.57-3.5,3.5-3.5Z"/><path class="cls-6" d="M424.56,377.96h-89c-3.59,0-6.5-2.91-6.5-6.5v-49c0-3.59,2.91-6.5,6.5-6.5h89c3.59,0,6.5,2.91,6.5,6.5v49c0,3.59-2.91,6.5-6.5,6.5Z"/><circle class="cls-8" cx="380.06" cy="346.96" r="6"/><path class="cls-6" d="M651.06,443.96c0-7.73-29.1-14-65-14s-65,6.27-65,14c0,4.96,11.96,9.31,30,11.79v76.71c0,3.59,2.91,6.5,6.5,6.5s6.5-2.91,6.5-6.5v-75.32c6.87.53,14.28.82,22,.82s15.13-.29,22-.82v75.32c0,3.59,2.91,6.5,6.5,6.5s6.5-2.91,6.5-6.5v-76.71c18.04-2.49,30-6.84,30-11.79Z"/><circle class="cls-3" cx="593.25" cy="287.81" r="28"/><polygon class="cls-10" points="523.57 527.38 511.31 527.38 505.48 480.09 523.57 480.09 523.57 527.38"/><path class="cls-3" d="M502.55,523.88h23.64v14.89h-38.53c0-8.22,6.67-14.89,14.89-14.89h0Z"/><polygon class="cls-10" points="504.43 520.54 492.74 516.87 501.33 470 518.59 475.42 504.43 520.54"/><path class="cls-3" d="M485.43,510.9l22.56,7.08h0l-4.46,14.2h0l-36.76-11.54h0c2.46-7.84,10.82-12.21,18.66-9.75Z"/><path class="cls-3" d="M508.42,501.67c-.54,0-1.07-.1-1.57-.29l-9.02-3.38c-2.09-.79-3.29-3-2.81-5.18,2.27-10.21,10.01-44.97,14.25-63.62,5.03-22.12,78.34-26.22,81.46-26.39h.26s8.25,10.35,8.25,10.35c2.98,9.58,2.04,17.05-2.81,22.21-14.13,15.05-56.33,5.71-61.36,4.53l-22.43,58.87c-.67,1.75-2.34,2.9-4.21,2.9Z"/><path class="cls-3" d="M521.42,508.67c-.54,0-1.07-.1-1.57-.29l-9.02-3.38c-2.09-.79-3.29-3-2.81-5.18,2.27-10.21,10.01-44.97,14.25-63.62,5.03-22.12,78.34-26.22,81.46-26.39h.26s8.25,10.35,8.25,10.35c2.98,9.58,2.04,17.05-2.81,22.21-14.13,15.05-56.33,5.71-61.36,4.53l-22.43,58.87c-.67,1.75-2.34,2.9-4.21,2.9Z"/><path class="cls-10" d="M495.33,364.65c.33.44.63.91.88,1.4l49.32,5.2,7.1-9.73,16.09,8.79-13.94,23.62-60.49-15.42c-4.15,4.05-10.8,3.96-14.84-.19s-3.96-10.8.19-14.84,10.8-3.96,14.84.19c.3.31.59.64.85.99h0Z"/><path class="cls-12" d="M609.94,424.13c-.71,0-1.42-.17-2.05-.5-9.86-5.01-29.07-13.7-46.87-15.52-1.23-.12-2.36-.76-3.1-1.75-.75-1-1.06-2.28-.83-3.51,1.61-8.9,5.29-31.55,4.82-49.7-.29-11.5,7.43-21.66,18.58-24.47h0c3.26-.86,6.57-1.51,9.91-1.95,13.59-1.72,25.99,7.9,27.71,21.48.31,2.42.25,4.87-.16,7.28-3.18,18.81-6.38,45.09-3.59,63.43.26,1.68-.44,3.36-1.82,4.35-.76.55-1.67.86-2.61.86Z"/><path class="cls-12" d="M562.82,376.28c-.61,0-1.22-.13-1.79-.37l-12.85-5.56c-2.28-.99-3.33-3.64-2.34-5.92l9.93-22.94c2.52-5.83,9.29-8.52,15.12-6,5.83,2.52,8.52,9.29,6,15.12,0,0,0,.01,0,.02l-9.93,22.94c-.71,1.65-2.34,2.71-4.13,2.72h0Z"/><circle class="cls-10" cx="592.23" cy="294.37" r="24.56"/><path class="cls-3" d="M567.22,282.3c11.63,7.1,24.75,11.42,38.33,12.63l-4.04-4.84c2.94,1.09,6.04,1.7,9.17,1.82,3.13-.05,6.41-1.25,8.19-3.83,1.61-2.6,1.84-5.82.63-8.63-1.23-2.76-3.15-5.15-5.57-6.96-8.71-6.89-20.29-8.96-30.84-5.51-3.56,1.07-6.76,3.11-9.21,5.91-2.33,2.87-6.81,5.43-5.62,8.93l-1.03.48Z"/><path class="cls-3" d="M596.36,262.48c-7.75-7.86-17.12-13.92-27.46-17.76-6.64-2.46-13.86-3.98-20.81-2.58s-13.5,6.2-15.44,13.01c-1.58,5.57.05,11.56,2.51,16.81s5.74,10.1,7.72,15.54c6.72,18.4-2.74,38.76-21.14,45.49-4.65,1.7-9.61,2.41-14.55,2.08,6.82.91,13.11,4.12,19.77,5.82s14.53,1.59,19.49-3.19c5.24-5.05,5.35-13.27,5.09-20.54l-1.13-32.45c-.19-5.52-.36-11.21,1.63-16.36s6.72-9.66,12.23-9.61c4.18.04,7.88,2.57,11.24,5.07s6.9,5.16,11.07,5.54,8.92-2.71,8.61-6.88"/><polygon class="cls-13" points="482.19 346.56 538.74 347.9 546.94 408.35 494.71 409.52 482.19 346.56"/><path class="cls-10" d="M542.33,362.65c.33.44.63.91.88,1.4l49.32,5.2,7.1-9.73,16.09,8.79-13.94,23.62-60.49-15.42c-4.15,4.05-10.8,3.96-14.84-.19s-3.96-10.8.19-14.84,10.8-3.96,14.84.19c.3.31.59.64.85.99h0Z"/><path class="cls-12" d="M609.82,377.28c-.61,0-1.22-.13-1.79-.37l-12.85-5.56c-2.28-.99-3.33-3.64-2.34-5.92l9.93-22.94c2.52-5.83,9.29-8.52,15.12-6,5.83,2.52,8.52,9.29,6,15.12,0,0,0,.01,0,.02l-9.93,22.94c-.71,1.65-2.34,2.71-4.13,2.72h0Z"/><path class="cls-4" d="M493.56,376.96H95.56c-3.59,0-6.5,2.91-6.5,6.5s2.91,6.5,6.5,6.5h11.5v141.5c0,3.59,2.91,6.5,6.5,6.5s6.5-2.91,6.5-6.5v-129.01l72.87,132.08c1.8,3.11,5.78,4.16,8.88,2.36,3.1-1.8,4.16-5.76,2.37-8.86l-76.18-138.07h348.05v.08l-76.13,137.98c-1.79,3.11-.73,7.08,2.38,8.88s7.08.73,8.88-2.38h0l64.87-117.58v114.51c0,3.59,2.91,6.5,6.5,6.5s6.5-2.91,6.5-6.5v-138.07l1.89-3.43h2.61c3.59,0,6.5-2.91,6.5-6.5s-2.91-6.5-6.5-6.5h0Z"/><path class="cls-4" d="M739.48,539.42H1.18c-.66,0-1.19-.54-1.18-1.2,0-.65.53-1.18,1.18-1.18h738.29c.66,0,1.19.54,1.19,1.19,0,.65-.53,1.18-1.19,1.19Z"/><path class="cls-2" d="M1192.74,104.87c-.62-.41-1.24-.8-1.86-1.2-17.81-11.39-36.9-20.65-56.88-27.57l-4.63,63.9h-29.36v-73.22c-1.85-.38-3.71-.74-5.57-1.08v74.31h-34.89c-40,0-72.43-32.43-72.43-72.43h0c-1.87.4-3.73.84-5.58,1.3v71.13h-28.42l-4.41-60.93c-20.53,7.87-40.02,18.23-58.03,30.83-.31.21-.62.43-.93.64-1.57,1.1-3.11,2.22-4.65,3.35v243.76h83.76l-1.48-20.5-8.14-112.57h164.02l-8.14,112.57-1.48,20.5h82.83V107.34c-1.23-.84-2.47-1.66-3.72-2.46ZM981.53,205.99h-23.65l-4.37-60.41h28.02v60.41ZM1094.44,205.99h-39.72v-1.2c0-2.42-1.96-4.38-4.38-4.38h-17.27c-2.42,0-4.38,1.96-4.38,4.37h0v1.2h-41.58v-60.41h107.32v60.41ZM1100.01,205.99v-60.41h28.96l-4.37,60.41h-24.59Z"/><path class="cls-2" d="M1283.71,508.72l.55-12.45c5.77-3.08,12.21-4.71,18.75-4.75-9.01,7.36-7.88,21.56-13.99,31.46-3.91,6.23-10.43,10.34-17.73,11.17l-7.54,4.61c-2.09-11.67,1.03-23.67,8.54-32.84,2.11-2.52,4.52-4.77,7.19-6.68,1.81,4.76,4.22,9.47,4.22,9.47Z"/><path class="cls-2" d="M879.35,495.08l-18.19-5.51c-2.39-9.69-2.37-19.82.05-29.5,7.49,16.08,28.89,19.77,41.22,32.52,7.73,8.12,11.35,19.31,9.84,30.42l3.98,12.88c-18.03-1.3-34.59-10.43-45.31-24.99-2.93-4.06-5.34-8.48-7.17-13.15,7.71-.87,15.58-2.67,15.58-2.67Z"/><path class="cls-13" d="M1269.55,536.74c0,.38-.15.74-.42,1.01-.27.26-.62.41-1,.41h-5.69c-.78,0-1.41-.63-1.42-1.41h0v-172.21c0-3.8-1.27-6.88-2.84-6.88h-426.7c-1.57,0-2.84,3.09-2.85,6.88v171.14c0,.73-.56,1.34-1.28,1.41-1.15.11-2.29.21-3.43.3-.03,0-.06,0-.08,0-.62.06-1.25.1-1.87.15h0c-.33-.59-.64-1.19-.96-1.79-.1-.2-.16-.43-.16-.66v-179.49c0-1.05.04-2.1.11-3.14.1-1.43.28-2.85.53-4.26,1.2-6.58,3.9-11.03,6.98-11.05h432.73c.45,0,.89.1,1.3.28.6.27,1.15.65,1.61,1.13.62.65,1.15,1.37,1.58,2.16,1.52,2.67,2.6,6.65,2.98,11.28,0,.04,0,.08,0,.13.1,1.15.15,2.32.14,3.48l.1,15.18.06,9.05.19,28.4.07,10.09.31,118.42Z"/><path class="cls-5" d="M1307.21,539.91l-195.29.22c-.47,0-.84-.38-.84-.85,0-.46.38-.84.84-.84l195.29-.22c.47,0,.84.38.84.85,0,.46-.38.84-.84.84Z"/><path class="cls-3" d="M1064.81,286.84h-34.59c-1.02,0-1.84.83-1.84,1.85v54.64h38.28v-54.64c0-1.02-.83-1.85-1.85-1.85h0ZM1047.63,317.89c-2.25-.01-4.07-1.83-4.08-4.08v-6.3c0-2.26,1.83-4.08,4.09-4.08,2.25,0,4.08,1.83,4.08,4.08v6.3c-.01,2.25-1.83,4.07-4.08,4.08h0Z"/><path class="cls-4" d="M1122.08,201.57h-147.85c-2.64,0-4.79,2.15-4.79,4.79v99.77c0,2.65,2.15,4.79,4.79,4.79h147.85c2.65,0,4.79-2.15,4.79-4.79v-99.77c0-2.64-2.15-4.79-4.79-4.79Z"/><path class="cls-8" d="M1120.85,205.03h-145.38c-1.42,0-2.56,1.15-2.56,2.57v97.3c0,1.41,1.15,2.56,2.56,2.56h145.38c1.41,0,2.56-1.15,2.56-2.56v-97.3c0-1.42-1.15-2.56-2.56-2.57Z"/><path class="cls-4" d="M1028.26,341.58v5.27c0,.57.46,1.03,1.03,1.03h36.45c.57,0,1.03-.46,1.03-1.03v-5.27h-38.52Z"/><path class="cls-3" d="M1092.53,349.72h-86.49c-.88,0-1.59-.71-1.59-1.59,0-.11.01-.22.03-.33l1.34-6.37c.16-.73.81-1.26,1.56-1.26h83.81c.75,0,1.4.53,1.56,1.26l1.34,6.37c.18.86-.37,1.7-1.23,1.88-.11.02-.22.03-.33.03Z"/><rect class="cls-4" x="1007.99" y="341.31" width="2.66" height="1.6" rx=".35" ry=".35"/><rect class="cls-4" x="1013.32" y="341.31" width="2.66" height="1.6" rx=".35" ry=".35"/><rect class="cls-4" x="1018.65" y="341.31" width="2.66" height="1.6" rx=".35" ry=".35"/><rect class="cls-4" x="1023.98" y="341.31" width="2.66" height="1.6" rx=".35" ry=".35"/><rect class="cls-4" x="1029.3" y="341.31" width="2.66" height="1.6" rx=".35" ry=".35"/><rect class="cls-4" x="1034.63" y="341.31" width="2.66" height="1.6" rx=".35" ry=".35"/><rect class="cls-4" x="1039.96" y="341.31" width="2.66" height="1.6" rx=".35" ry=".35"/><rect class="cls-4" x="1045.29" y="341.31" width="2.66" height="1.6" rx=".35" ry=".35"/><rect class="cls-4" x="1050.62" y="341.31" width="2.66" height="1.6" rx=".35" ry=".35"/><rect class="cls-4" x="1055.94" y="341.31" width="2.66" height="1.6" rx=".35" ry=".35"/><rect class="cls-4" x="1061.27" y="341.31" width="2.66" height="1.6" rx=".35" ry=".35"/><rect class="cls-4" x="1066.6" y="341.31" width="2.66" height="1.6" rx=".35" ry=".35"/><rect class="cls-4" x="1071.93" y="341.31" width="2.66" height="1.6" rx=".35" ry=".35"/><rect class="cls-4" x="1077.26" y="341.31" width="2.66" height="1.6" rx=".35" ry=".35"/><rect class="cls-4" x="1082.58" y="341.31" width="2.66" height="1.6" rx=".35" ry=".35"/><rect class="cls-4" x="1087.91" y="341.31" width="2.66" height="1.6" rx=".35" ry=".35"/><rect class="cls-4" x="1007.93" y="343.98" width="2.66" height="1.6" rx=".35" ry=".35"/><rect class="cls-4" x="1013.26" y="343.98" width="2.66" height="1.6" rx=".35" ry=".35"/><rect class="cls-4" x="1018.59" y="343.98" width="2.66" height="1.6" rx=".35" ry=".35"/><rect class="cls-4" x="1023.91" y="343.98" width="2.66" height="1.6" rx=".35" ry=".35"/><rect class="cls-4" x="1029.24" y="343.98" width="2.66" height="1.6" rx=".35" ry=".35"/><rect class="cls-4" x="1034.57" y="343.98" width="2.66" height="1.6" rx=".35" ry=".35"/><rect class="cls-4" x="1039.9" y="343.98" width="2.66" height="1.6" rx=".35" ry=".35"/><rect class="cls-4" x="1045.22" y="343.98" width="2.66" height="1.6" rx=".35" ry=".35"/><rect class="cls-4" x="1050.55" y="343.98" width="2.66" height="1.6" rx=".35" ry=".35"/><rect class="cls-4" x="1055.88" y="343.98" width="2.66" height="1.6" rx=".35" ry=".35"/><rect class="cls-4" x="1061.21" y="343.98" width="2.66" height="1.6" rx=".35" ry=".35"/><rect class="cls-4" x="1066.54" y="343.98" width="2.66" height="1.6" rx=".35" ry=".35"/><rect class="cls-4" x="1071.86" y="343.98" width="2.66" height="1.6" rx=".35" ry=".35"/><rect class="cls-4" x="1077.19" y="343.98" width="2.66" height="1.6" rx=".35" ry=".35"/><rect class="cls-4" x="1082.52" y="343.98" width="2.66" height="1.6" rx=".35" ry=".35"/><rect class="cls-4" x="1087.85" y="343.98" width="2.66" height="1.6" rx=".35" ry=".35"/><rect class="cls-4" x="1033.5" y="347.17" width="21.31" height="1.6" rx=".35" ry=".35"/><path class="cls-5" d="M1113.54,218.44h-136.03c-.3,0-.54-.25-.53-.55,0-.29.24-.52.53-.53h136.03c.3,0,.54.25.53.55,0,.29-.24.52-.53.53Z"/><ellipse class="cls-4" cx="986.77" cy="211.35" rx="3.17" ry="3.24"/><ellipse class="cls-4" cx="997.72" cy="211.35" rx="3.17" ry="3.24"/><ellipse class="cls-4" cx="1008.67" cy="211.35" rx="3.17" ry="3.24"/><path class="cls-4" d="M1106.95,208.92h-7.78c-.33,0-.58.28-.58.6,0,.32.26.57.58.58h7.78c.33,0,.58-.28.58-.6,0-.32-.26-.57-.58-.58Z"/><path class="cls-4" d="M1106.95,211.13h-7.78c-.33,0-.58.28-.58.6,0,.32.26.57.58.58h7.78c.33,0,.58-.28.58-.6,0-.32-.26-.57-.58-.58Z"/><path class="cls-4" d="M1106.95,213.34h-7.78c-.33,0-.58.28-.58.6,0,.32.26.57.58.58h7.78c.33,0,.58-.28.58-.6,0-.32-.26-.57-.58-.58Z"/><rect class="cls-12" x="1037.08" y="250.04" width="21.62" height="4.62" rx="2.31" ry="2.31"/><rect class="cls-13" x="1026.1" y="259.29" width="43.58" height="4.62" rx="2.31" ry="2.31"/><rect class="cls-13" x="1026.1" y="268.54" width="43.58" height="4.62" rx="2.31" ry="2.31"/><path class="cls-4" d="M978.84,356.67h-42.49c-3.13,0-5.67,2.54-5.67,5.67s2.54,5.67,5.67,5.67h15.58v43.91h11.33v-43.91h15.58c3.13,0,5.67-2.54,5.67-5.67s-2.54-5.67-5.67-5.67Z"/><path class="cls-4" d="M1006.88,436.23h-113.66c-22.78-.08-42.04-16.86-45.27-39.4l-4.02-14.8c-8.33-30.67-21.01-59.98-37.66-87.04-7.61-12.36-11.53-24.33-2.63-35.85.08-.1.15-.19.22-.29,7.14-9.29,42.66-11.3,54.24-11.69.46-.02.92-.02,1.38-.02h70.69c.46,0,.92,0,1.38.02,12.72.37,24.21,7.69,29.91,19.07,6.09,11.61,5.31,25.63-2.02,36.49-24.83,37.3-32.44,60.69-24.65,75.84,7.53,14.65,30.61,22.14,72.63,23.57,11.29.38,16.48,9.18,16.51,17.19.04,7.8-4.95,16.41-15.97,16.89-.36.02-.72.02-1.08.02Z"/><path class="cls-4" d="M912.53,537.16h42.49c3.13,0,5.67-2.54,5.67-5.67s-2.54-5.67-5.67-5.67h-15.58v-95.61h-11.33v95.61h-15.58c-3.13,0-5.67,2.54-5.67,5.67s2.54,5.67,5.67,5.67Z"/><path class="cls-3" d="M909.14,250.69l.89,5.41c.42,2.62,1.95,21.17.82,23.38-.1-4.13-7.79-10.62-12.77-9.14l-7.82,1.74-4.85,1.08-3.95.87-11.48,2.51c-.02-.13-.03-.27-.05-.41-.03-.17-.05-.34-.09-.5-.21-1.08-.6-2.11-1.15-3.06-.06,1.27-.43,2.51-1.09,3.6-.02.03-.03.06-.05.09-.2.33-.43.65-.67.95-.01,0-.02.02-.03.03,0,0-2.36-37.6-2.11-37.95.18-.25.36-.49.55-.72.19-.24.37-.47.57-.71.03-.02.05-.05.06-.08.55-.65,1.14-1.28,1.76-1.88.18-.17.37-.35.56-.53,2.87-2.66,6.3-4.64,10.04-5.79.42-.13.86-.25,1.31-.37.44-.11.89-.22,1.34-.31l.15-.03c.22-.04.44-.08.66-.12.27-.05.55-.09.81-.12,3.48-.5,7.02-.3,10.42.59,0,0,0,0,.02,0,2.84.74,5.54,1.94,7.99,3.56,4.24,2.8,5.89,7.36,7.06,12.49.41,1.76.76,3.59,1.13,5.44Z"/><polygon class="cls-11" points="950.99 498.61 958.31 502.59 977.69 475.79 966.89 469.92 950.99 498.61"/><path class="cls-3" d="M954.52,489.06l13.29,4.16-2.12,5.57,9.11,13.23c1.17,1.69.74,4.01-.95,5.17-1.01.69-2.29.85-3.43.41l-15.47-5.88-.57-6.52-3.13,5.11-5.83-2.22,9.11-19.04Z"/><path class="cls-11" d="M992.46,378.77c-4.41,1.07-8.86-1.63-9.94-6.05-.11-.47-.19-.95-.22-1.43l-62.44-22.46,11.46-9.97,59.26,23.6c4.57.02,8.26,3.73,8.24,8.3-.01,3.82-2.65,7.14-6.37,8.02h0Z"/><path class="cls-12" d="M902.42,293.18s-10.52.23-11.45,12.24,22.01,41.7,25.57,46.6,43.04,10.92,43.04,10.92l13.42-9.75c-14.11-9.14-26.98-16.15-35.62-15.83l-34.97-44.18Z"/><path class="cls-11" d="M889.52,346.15l2.56,11.01s.03,10.15,1.82,12.02c1.79,1.86,41.05-1.88,41.05-1.88,0,0-4.16-16.36-4.11-28.74l-41.32,7.58Z"/><path class="cls-3" d="M972.46,486.99l-14.16-7.79c-.27-18.43,10.82-43.37,23.97-69.5-29.41,5.06-57.15,6.68-81.15.56-8.2-2.16-13.14-10.51-11.09-18.74.09-.39.2-.77.32-1.15,2.87-8.76-3.57-14.26,2.36-23.89,15.58-5.32,30.38-6.82,43.91-2.12l8.48,18.75,42.03-5.44c8.5-1.02,16.21,5.05,17.23,13.55,0,.04,0,.08.01.12.06.46.09.91.11,1.37-8.5,39.84-18.03,75.69-32.01,94.29Z"/><circle class="cls-11" cx="887.95" cy="252.86" r="17.57"/><path class="cls-12" d="M883.82,276.45l16.19-.96c1.4-.08,2.7.73,3.23,2.03l4.58,11.09,19.02,15.72s7.53,9.58,7.55,21.95c.02,12.37,2.67,41.01,2.67,41.01,0,0-10.99-15.47-17.77-11.35-1.15.7-1.56,2.13-2.77,2.85-.6.36-2,.01-2.6.37-9.35,5.55-19.09,10.97-20,10.02-1.79-1.87-3.96-11.4-3.96-11.4l-14.82-54.45c-1.63-5.8-.57-12.03,2.87-16.97,1.04-1.46,2.12-2.54,3.13-2.72,2.26-.48,1.06-5.56,2.7-7.19Z"/><polygon class="cls-11" points="1021.55 521.68 1028.38 516.92 1012.9 487.71 1002.81 494.73 1021.55 521.68"/><path class="cls-3" d="M1022.58,502.08l-10.71,9.57c-17.03-18.98-29.91-45.59-40.82-75.82-28.59-8.37-50.15-21.88-68.97-37.91-6.38-5.4-11.17-12.34-5.73-18.92.25-.31.52-.61.8-.89,6.43-6.61,22.73-5.35,32.28-11.4l21.33,22.8-1.34,6.11,40.07,13.57c8.07,2.83,12.31,11.66,9.49,19.72-.01.04-.03.08-.04.12-.15.43-.32.86-.51,1.28l24.14,71.76Z"/><path class="cls-3" d="M1017.56,519.75l10.94-8.62,3.4,4.89,16.06-.05c2.05,0,3.73,1.65,3.73,3.71,0,1.22-.59,2.37-1.6,3.07l-13.59,9.45-5.7-3.21,2.45,5.47-5.12,3.56-10.57-18.27Z"/><path class="cls-11" d="M907.73,413.68c-4.18-1.77-6.13-6.6-4.36-10.79.19-.45.42-.87.68-1.28l-36.65-55.31,15.15-1.15,33.43,54.33c3.65,2.74,4.39,7.93,1.65,11.58-2.3,3.06-6.39,4.14-9.89,2.63h0Z"/><path class="cls-12" d="M886.65,291.26s-8.57-6.1-16.49,2.97-7.26,46.59-7.33,52.64c-.02,1.89,2.71,5.98,6.48,10.71,1.69,2.12,3.59,4.37,5.55,6.6,1.13,1.29.16,3.98,1.29,5.24,1.13,1.25,4.37,1.07,5.44,2.23,5.1,5.51,9.23,9.7,9.23,9.7l16.59.2c.19-12.33-8.26-23.34-19.1-33.97l-1.65-56.32Z"/><path class="cls-3" d="M909.9,244.33c-.65.32-1.28.63-1.9.92-2.49,1.22-5.05,2.27-7.69,3.13-.44-1.19-1.11-2.29-1.97-3.22.22,1.29.11,2.61-.33,3.85-3.99.99-8.17.83-12.07-.47,2.55,4.72,4.43,14.66,4.29,23.53-.06,4.69-.69,9.08-2.08,12.23l-1.78-5.42c-.17-1.94-.5-3.85-.99-5.73-1.19-5.27-2.31-1.75-3.95.87l-11.48,2.51c-.02-.13-.03-.27-.05-.41-.03-.17-.05-.34-.09-.5-.21-1.08-.6-2.11-1.15-3.06-.06,1.27-.43,2.51-1.09,3.6-.02.03-.03.06-.05.09-.2.33-.43.65-.67.95-.01,0-.02.02-.03.03-7.41.99-12.61-37.23-2.11-37.94.31-.02.36-.49.55-.73.19-.24.37-.47.57-.71.03-.02.05-.05.06-.08.56-.65,1.14-1.27,1.76-1.88.18-.17.37-.35.56-.53,2.88-2.64,6.31-4.62,10.04-5.79.42-.13.86-.26,1.3-.38.44-.11.89-.22,1.34-.31l.15-.03c.22-.04.44-.08.66-.12.27-.05.55-.09.81-.12,1.01.51,1.87,1.26,2.5,2.19l7.33-1.5c.19-.04.39-.07.59-.1h.01c9.16-1.54,15.04,5.83,16.94,15.12Z"/><path class="cls-3" d="M869.93,237.57c-1.57,1.13-3.22,2.3-5.14,2.58s-4.16-.65-4.69-2.51c-.65-2.28,1.41-4.35,3.26-5.83l5.86-4.69c1.07-.95,2.29-1.74,3.59-2.32,1.33-.59,2.86-.53,4.15.14,1.28.86,2.02,2.33,1.96,3.88-.08,1.52-.59,2.99-1.45,4.25-2.2,3.43-5.7,5.81-9.7,6.59"/><path class="cls-4" d="M914.39,359.51h-42.49c-3.13,0-5.67,2.54-5.67,5.67s2.54,5.67,5.67,5.67h15.58v43.91h11.33v-43.91h15.58c3.13,0,5.67-2.54,5.67-5.67s-2.54-5.67-5.67-5.67Z"/><path class="cls-5" d="M1071.37,539.21l-310.73.22c-.47,0-.84-.38-.84-.85,0-.46.38-.84.84-.84l310.73-.22c.47,0,.84.38.84.85,0,.46-.38.84-.84.84Z"/><polygon class="cls-7" points="1161.8 445.14 1168.72 452.68 1201.09 429.59 1190.88 418.46 1161.8 445.14"/><path class="cls-3" d="M1176.12,455.81h0s-.7-7.54-.7-7.54l-.32-.15-1.86-.89-8.79-4.16-.18-.2-1.76-1.93-9.77,8.97,13.23,14.42,9.07,9.89.3-.28c5.22-4.79,5.58-12.9.79-18.12,0,0,0,0-.01-.01h0Z"/><polygon class="cls-7" points="1125.96 520.34 1135.75 523.32 1151.88 486.97 1137.43 482.58 1125.96 520.34"/><path class="cls-3" d="M1151.31,528.48c-1.59-3.01-4.33-5.26-7.59-6.23l-4.44-6.13-.35.03-11.74,1.08-.26-.08-2.49-.76-3.85,12.68,31.57,9.59.12-.4c.99-3.26.65-6.78-.96-9.78Z"/><path id="b2eb929e-713e-4b71-a146-193a455bcc79-79" class="cls-3" d="M1206.69,330.05s62.5,60.35,22.99,79.03h-12.21s-3.67-13.04-12.07-24.03c-1.15-1.51-5.48-1.2-6.68-2.67-7.33-8.99-15.28-16.7-20.76-16.4l1.31,41.7,2.12,14.87c1.12,7.69-30.37,74.82-30.37,74.82l-19.79-7.78s20.62-55.29,20.86-63.26l-16.52-87.65,71.12-8.62Z"/><path class="cls-12" d="M1211.9,333.03c-.32.45-.73.83-1.22,1.1-.8.45-1.66.77-2.56.95-14.07,3.19-60.04,9.82-71.98,6.66-1.47-.38-2.42-.92-2.73-1.63-1-2.24-.87-11.69-.28-23.11.11-2.14,2.46-4.45,2.61-6.69.1-1.68-2.02-3.26-1.91-4.96.78-11.54,1.78-23.31,2.46-30.74.42-4.78.72-7.77.72-7.77l-7.26-45.77.34-.56.38-.19,23.41-11.59,1.27-3.26c.76-1.92,2.6-3.18,4.67-3.19l15.42-.06c1.62,0,3.15.77,4.1,2.08l4.18,5.79,27.62,17.71-.11.33-12.96,39.44-.06,3.07h0s-.48,24.72-.48,24.72l1.34,3.35-1.51,5.5s.69,6.42,4.41,11.2c3.37,4.33,7.66,8.85,9.6,12.52h0c1.08,2.03,1.44,3.79.53,5.12Z"/><path id="e9cec503-1de8-4692-84d1-4d2e854ea0bd-80" class="cls-3" d="M1232.68,405.49l-3.34,4.22s-30.73,21.5-31.78,23.5l-4.86,4.59-11.75-12.56,6.11-7.66c4.89-6.13,11.21-10.97,18.4-14.09h0l9.36-8.31,17.85,10.29Z"/><path class="cls-7" d="M1213.15,345.16l-5.6-54.16-1.48-22.29,15.66-2.83s-.62,15.94,1.43,24.93c2.02,8.87.27,53.16.14,54.34,3.14,2.81,3.41,7.62.6,10.76s-7.62,3.41-10.76.6-3.41-7.62-.6-10.76c.19-.21.39-.41.6-.6h0Z"/><path class="cls-12" d="M1228.43,302.22l-20.13,4.17-1.76-7.02-2.05-2.18-4.1-21.48-5.88-12.58,1.53-43.02,14.94,7.92h.02c2.28,2.49,3.86,6.04,6.48,9.61,8.25,11.22,9.17,38.5,8.92,53.44,0,.25.24.5.54.78,2.9,2.66,3.52,6.99,1.5,10.36h0Z"/><path class="cls-7" d="M1122,347.28l5.6-54.16,1.48-22.29-15.66-2.83s.62,15.94-1.43,24.93c-2.02,8.87-.27,53.16-.14,54.34-3.14,2.81-3.41,7.62-.6,10.76s7.62,3.41,10.76.6c3.14-2.81,3.41-7.62.6-10.76-.19-.21-.39-.41-.6-.6h0Z"/><path class="cls-12" d="M1140.65,265.26l-4.36,9.33-1.52,3.25-4.1,21.47-2.05,2.17-1.76,7.02-.83-.17-14.94-3.09-4.36-.9c-2.02-3.37-1.4-7.7,1.5-10.36.3-.27.55-.53.54-.78-.25-14.94.67-42.21,8.92-53.44,2.62-3.56,4.19-7.11,6.48-9.59,0,0,0-.01.01-.01l5.57-9.11.34-.56.38-.19,10.18,44.96Z"/><circle id="e944ea38-edcc-43c9-bf24-dbaf21228ba4" class="cls-7" cx="1167.08" cy="177.3" r="20.51"/><path class="cls-3" d="M1190.14,168.3c-.07-3.5-.47-7.97-2.92-11.54-2.07-3-6.24-5.38-10.13-4.19.09-1.59-.72-3.09-2.1-3.88-1.47-.9-3.24-1.06-4.81-1.21-3.94-.37-8.03-.75-12.03,0-4.48.85-8.15,3.16-10.06,6.34l-.04.1-.39,1.88c-.11.51-.43.95-.89,1.2-.46.26-1.01.3-1.49.11-.84-.31-1.77.11-2.09.95-.1.26-.13.54-.09.81l.11.75-1.13-.21c-.88-.17-1.73.4-1.9,1.28-.06.29-.03.6.08.88l.31.86c-.47,0-.92.2-1.24.55-.47.51-.55,1.26-.21,1.86,1.26,2.15,3.05,3.95,5.2,5.23.97.58,2.01,1.03,3.09,1.32.23.06.46.12.7.17,8.7,1.87,17.66,2.14,26.45.79-.52,1.73-.72,3.55-.59,5.35.28,2.26,1.61,4.12,3.38,4.75.4.14.81.24,1.23.3.4.07.8.16,1.18.29,1.79.65,2.7,2.63,2.05,4.42-.21.58-.57,1.08-1.04,1.47,0,0,1.86,1.54,2.09,1.46.91-.4,1.67-1.08,2.18-1.94,3.53-5.09,5.24-11.86,5.07-20.13Z"/><path class="cls-6" d="M1996.53,349.95h-437.83c-3.87,0-7.01,3.14-7.01,7.01s3.14,7.01,7.01,7.01h12.4v167.69c0,3.87,3.14,7.01,7.01,7.01s7.01-3.14,7.01-7.01l.11-167.69h351.4l32.4,167.69c0,3.87,3.14,7.01,7.01,7.01s7.01-3.14,7.01-7.01l2.04-167.69h11.44c3.87,0,7.01-3.14,7.01-7.01s-3.14-7.01-7.01-7.01h0Z"/><path class="cls-2" d="M1634.6,318.72v29.68h-74.37c-8.2.29-15.07-6.13-15.36-14.33-.29-8.2,6.13-15.07,14.33-15.36.34-.01.69-.01,1.03,0h74.37Z"/><path class="cls-12" d="M1636.42,348.17c0,.63-.51,1.14-1.14,1.14h-76.38c-8.64,0-15.63-7.02-15.62-15.66,0-8.63,7-15.62,15.62-15.62h76.38c.63,0,1.14.51,1.15,1.14,0,.63-.51,1.14-1.14,1.15h-76.39c-7.38.01-13.35,6-13.34,13.38.01,7.36,5.98,13.32,13.34,13.34h76.38c.63,0,1.14.51,1.14,1.14Z"/><path class="cls-6" d="M1634.6,325.57h-79.92c-.13,0-.23-.1-.23-.23,0-.13.1-.23.23-.23h79.92c.13,0,.23.1.23.23,0,.12-.1.23-.23.23Z"/><path class="cls-6" d="M1634.6,331.05h-79.92c-.13,0-.23-.1-.23-.23,0-.13.1-.23.23-.23h79.92c.13,0,.23.1.23.23,0,.12-.1.23-.23.23Z"/><path class="cls-6" d="M1634.6,336.53h-79.92c-.13,0-.23-.1-.23-.23,0-.13.1-.23.23-.23h79.92c.13,0,.23.1.23.23,0,.12-.1.23-.23.23Z"/><path class="cls-6" d="M1634.6,342.01h-79.92c-.13,0-.23-.1-.23-.23,0-.13.1-.23.23-.23h79.92c.13,0,.23.1.23.23,0,.12-.1.23-.23.23Z"/><path class="cls-2" d="M1620.58,287.44v29.68h-74.37c-8.2.29-15.07-6.13-15.36-14.33-.29-8.2,6.13-15.07,14.33-15.36.34-.01.69-.01,1.03,0h74.37Z"/><path class="cls-4" d="M1622.4,316.9c0,.63-.51,1.14-1.14,1.14h-76.38c-8.64,0-15.64-7.01-15.63-15.65,0-8.63,7-15.63,15.63-15.63h76.38c.63,0,1.14.51,1.14,1.14s-.51,1.14-1.14,1.14h-76.38c-7.38,0-13.35,5.99-13.34,13.37,0,7.37,5.98,13.34,13.34,13.34h76.38c.63,0,1.14.51,1.14,1.14Z"/><path class="cls-6" d="M1620.58,294.29h-79.92c-.13,0-.23-.1-.23-.23,0-.13.1-.23.23-.23h79.92c.13,0,.23.1.23.23,0,.12-.1.23-.23.23Z"/><path class="cls-6" d="M1620.58,299.77h-79.92c-.13,0-.23-.1-.23-.23,0-.13.1-.23.23-.23h79.92c.13,0,.23.1.23.23,0,.12-.1.23-.23.23Z"/><path class="cls-6" d="M1620.58,305.25h-79.92c-.13,0-.23-.1-.23-.23,0-.13.1-.23.23-.23h79.92c.13,0,.23.1.23.23,0,.12-.1.23-.23.23Z"/><path class="cls-6" d="M1620.58,310.73h-79.92c-.13,0-.23-.1-.23-.23,0-.13.1-.23.23-.23h79.92c.13,0,.23.1.23.23,0,.12-.1.23-.23.23Z"/><path class="cls-6" d="M1707.09,454.99v-25.88c0-2.38-1.93-4.31-4.31-4.31h-98.13c-2.38,0-4.31,1.93-4.31,4.31v25.88h106.76Z"/><rect class="cls-6" x="1600.33" y="464.69" width="106.76" height="33.43"/><path class="cls-6" d="M1600.33,507.83v25.88c0,2.38,1.93,4.31,4.31,4.31h98.13c2.38,0,4.31-1.93,4.31-4.31v-25.88h-106.76Z"/><circle class="cls-8" cx="1653.17" cy="440.97" r="3.24"/><circle class="cls-8" cx="1653.17" cy="484.11" r="3.24"/><circle class="cls-8" cx="1653.34" cy="526.33" r="3.24"/><path class="cls-2" d="M1694.99,395.28v29.68h-74.37c-8.2.29-15.07-6.13-15.36-14.33-.29-8.2,6.13-15.07,14.32-15.36.34-.01.69-.01,1.03,0h74.37Z"/><path class="cls-4" d="M1696.81,424.74c0,.63-.51,1.14-1.14,1.14h-76.38c-8.64,0-15.65-6.99-15.65-15.63,0-8.64,6.99-15.65,15.63-15.65h76.4c.63,0,1.14.51,1.15,1.14,0,.63-.51,1.14-1.14,1.15h-76.39c-7.38,0-13.35,6-13.34,13.37,0,7.36,5.98,13.33,13.34,13.34h76.38c.63,0,1.14.51,1.14,1.14Z"/><path class="cls-6" d="M1694.99,402.13h-79.92c-.13,0-.23-.1-.23-.23,0-.13.1-.23.23-.23h79.92c.13,0,.23.1.23.23,0,.12-.1.23-.23.23h0Z"/><path class="cls-6" d="M1694.99,407.61h-79.92c-.13,0-.23-.1-.23-.23,0-.13.1-.23.23-.23h79.92c.13,0,.23.1.23.23,0,.12-.1.23-.23.23h0Z"/><path class="cls-6" d="M1694.99,413.09h-79.92c-.13,0-.23-.1-.23-.23,0-.13.1-.23.23-.23h79.92c.13,0,.23.1.23.23,0,.12-.1.23-.23.23h0Z"/><path class="cls-6" d="M1694.99,418.57h-79.92c-.13,0-.23-.1-.23-.23,0-.13.1-.23.23-.23h79.92c.13,0,.23.1.23.23,0,.12-.1.23-.23.23h0Z"/><path class="cls-4" d="M1607.64,277.54h-33.88c-.32,0-.64.07-.93.22l-8.55,4.28c-.79.34-1.16,1.25-.82,2.04.16.37.45.67.82.82l8.55,4.28c.29.14.61.22.93.22h33.88c.97.06,1.81-.68,1.88-1.65v-8.56c-.07-.97-.91-1.71-1.88-1.65Z"/><path class="cls-12" d="M1609.52,279.19v8.56c-.07.97-.9,1.71-1.88,1.65h-6.75v-11.86h6.75c.97-.06,1.81.68,1.88,1.65Z"/><path class="cls-13" d="M1404.5,445.32c8.87,3.12,18.73,1.38,26-4.58,9.11-7.64,11.96-20.24,14.29-31.9,2.29-11.5,4.58-23,6.87-34.49l-14.39,9.91c-10.35,7.12-20.93,14.48-28.09,24.8-7.16,10.32-10.29,24.41-4.54,35.57"/><path class="cls-2" d="M1405.73,487.08c-1.46-10.61-2.95-21.35-1.93-32.07.91-9.52,3.81-18.82,9.73-26.45,3.14-4.04,6.96-7.5,11.29-10.23,1.13-.71,2.17,1.08,1.04,1.79-7.49,4.73-13.28,11.72-16.54,19.96-3.6,9.16-4.18,19.15-3.56,28.88.38,5.89,1.17,11.73,1.97,17.57.13.55-.18,1.1-.72,1.27-.55.15-1.12-.17-1.27-.72h0Z"/><path class="cls-13" d="M1419.76,468.31c3.81,5.78,10.35,9.16,17.27,8.91,8.74-.42,16.03-6.52,22.59-12.31l19.41-17.14-12.84-.61c-9.24-.44-18.71-.85-27.51,1.99-8.8,2.85-16.91,9.7-18.52,18.81"/><path class="cls-2" d="M1401.62,493.18c7.01-12.4,15.14-26.19,29.67-30.59,4.04-1.22,8.27-1.66,12.48-1.29,1.32.11.99,2.16-.33,2.04-7.05-.58-14.08,1.28-19.91,5.27-5.61,3.82-9.99,9.14-13.69,14.77-2.27,3.45-4.3,7.05-6.33,10.64-.65,1.15-2.55.32-1.89-.84h0Z"/><path class="cls-2" d="M1390.39,506.23c.48-5.58,4.03-10.42,9.2-12.57v-7.17h12.03v7.4c4.91,2.25,8.23,6.97,8.7,12.35l2.83,32.87h-35.58l2.83-32.87Z"/><path class="cls-13" d="M1799.37,349.28l-3.58-1.51-2.45-17.93h-32.68l-2.66,17.86-3.2,1.6c-.38.19-.53.64-.34,1.02.13.26.39.42.68.42h43.94c.42,0,.76-.34.76-.76,0-.31-.18-.58-.47-.7Z"/><path class="cls-6" d="M1857.45,332.22h-160.54c-1.75,0-3.17-1.43-3.17-3.18v-22.64h166.89v22.64c0,1.75-1.42,3.18-3.17,3.18Z"/><path class="cls-4" d="M1860.79,317.1h-167.2v-96.87c0-2.12,1.72-3.83,3.83-3.83h159.53c2.12,0,3.83,1.72,3.83,3.83v96.87Z"/><path class="cls-8" d="M1850.8,310.07h-147.23c-1.63,0-2.95-1.32-2.96-2.96v-80.73c0-1.63,1.32-2.95,2.96-2.96h147.23c1.63,0,2.95,1.32,2.96,2.96v80.73c0,1.63-1.32,2.95-2.96,2.96Z"/><path class="cls-11" d="M1812.02,338.56c3.59-3.32,9.19-3.09,12.51.5.35.38.67.8.95,1.24l19.91-3.54,5.1,11.58-28.19,4.61c-4.31,2.37-9.72.8-12.09-3.51-1.98-3.6-1.24-8.1,1.8-10.87Z"/><path class="cls-12" d="M1830.46,353.34l20.76-.26,2.63-.04,42.24-.53s11.47-10.94,21.46-22.21l-1.4-10.13c-1.37-9.94-6.3-19.04-13.87-25.61-14.31,9.56-22.6,28.48-22.6,28.48l-26.19,6.26-2.62.63-16.27,3.89-4.13,19.52Z"/><path class="cls-9" d="M1936.74,415.58h-38.75c0,1.66-42.36,3.01-42.36,3.01-.93.7-1.79,1.51-2.54,2.41-2.26,2.7-3.5,6.11-3.49,9.63v2.41c0,8.31,6.74,15.04,15.04,15.04h72.1c8.3,0,15.03-6.74,15.04-15.04v-2.41c-.01-8.3-6.74-15.03-15.04-15.04Z"/><rect class="cls-9" x="1892.92" y="447.47" width="15.64" height="90.29"/><path class="cls-9" d="M1848.39,537.21c0,1.69,23.7.65,52.94.65s52.94,1.04,52.94-.65-23.7-15.09-52.94-15.09-52.94,13.4-52.94,15.09Z"/><polygon class="cls-11" points="1837.89 526.89 1826.25 526.89 1820.71 481.99 1837.89 481.99 1837.89 526.89"/><path class="cls-3" d="M1840.86,538.18h-37.54v-.48c0-8.07,6.54-14.61,14.61-14.61h22.93s0,15.09,0,15.09Z"/><polygon class="cls-11" points="1803.48 526.89 1791.84 526.89 1786.3 481.99 1803.48 481.99 1803.48 526.89"/><path class="cls-3" d="M1806.45,538.18h-37.54v-.48c0-8.07,6.54-14.61,14.61-14.61h22.93s0,15.09,0,15.09Z"/><circle class="cls-11" cx="1907.76" cy="248.13" r="20.24"/><path class="cls-3" d="M1940.52,386.82s6.79,35.91-19.05,40.49c-25.84,4.57-63.14,7.79-63.14,7.79l-16.75,78.16-22.51-2.01s2.99-94.08,10.35-101.44c7.36-7.36,53.88-29.4,53.88-29.4l57.21,6.42Z"/><path class="cls-3" d="M1890.05,371.77l-11.3,11.34s-81.61,13.14-84.75,31.99c-4.75,28.46-10.37,90.34-10.37,90.34l24.54-1.84,9.62-70.34,39.26-8.93,44.66-24.34-11.65-28.22Z"/><path class="cls-3" d="M1927.24,236.05c-2-3.77-4.54-11.28-8.57-12.68-2.24-.74-4.55-1.24-6.9-1.47l-6.86,2.64,3.73-2.9c-.73-.04-1.45-.08-2.18-.11l-4.63,1.78,2.37-1.84c-4.31-.04-8.76.4-12.1,3.03-2.85,2.24-5.67,10.72-6.13,14.31-.49,3.44-.32,6.94.5,10.31l1.17,1.11c.41-.94.72-1.92.92-2.93.85-3.8,3.26-7.06,6.63-9l.06-.04c1.96-1.11,4.35-1.05,6.6-.97l10.7.39c2.57.09,5.35.26,7.35,1.87,1.28,1.19,2.28,2.64,2.94,4.26,1,2.01,2.95,9.6,2.95,9.6,0,0,1.1-1.43,1.63-.37.85-2.78,1.36-5.66,1.53-8.56.17-2.92-.43-5.83-1.73-8.44Z"/><path class="cls-11" d="M1998.04,257.02c-4.88.32-8.57,4.54-8.25,9.41.03.52.11,1.04.24,1.54l-16.28,12.01,4.88,11.67,22.75-17.28c4.68-1.49,7.27-6.5,5.78-11.18-1.25-3.92-5.02-6.47-9.12-6.17h0Z"/><path class="cls-12" d="M1995.42,281.53l-40.81,45.32s-19.51-6.25-34.61-13.02l-6.78-20.82c-1.57-4.83-2.25-9.91-1.98-14.98,20.92-5.57,45.26,15.15,45.26,15.15l30.55-23.93,8.37,12.29Z"/><path class="cls-12" d="M1900.2,390.17c-7.28-2.51-14.81-5.12-22.93-6.09l-.35-.04.1-.34c8.41-29.51,6.31-48.39,2.19-76.75-1.8-12.56,4.88-24.81,16.42-30.1l.05-.02,23.19-1.47h.05s16.87,4.96,16.87,4.96c4.99,1.48,8.37,6.1,8.28,11.3-.18,9.33.2,19.74.62,30.76.92,24.73,1.87,50.3-3.53,66.9l-.03.09-.07.06c-4.96,4.04-11.18,6.23-17.59,6.18-7.57,0-15.3-2.67-23.27-5.42Z"/><path class="cls-6" d="M2068.57,540.13h-744.09c-.6,0-1.08-.48-1.08-1.08s.48-1.08,1.08-1.08h744.09c.6,0,1.08.48,1.08,1.08s-.48,1.08-1.08,1.08Z"/></g></svg>