<?xml version="1.0" encoding="UTF-8"?><svg id="Layer_2" xmlns="http://www.w3.org/2000/svg" viewBox="0 0 452.43 246.38"><defs><style>.cls-1{font-family:Montserrat-Black, Montserrat;font-size:25.69px;font-weight:800;}.cls-2{letter-spacing:-.01em;}.cls-3{letter-spacing:-.03em;}.cls-4{font-family:Elanor-ExtraBold, Elanor;font-size:101.41px;font-weight:700;}.cls-5{stroke-width:0px;}.cls-6{letter-spacing:0em;}.cls-7{fill:#fcb614;stroke:#000;stroke-width:2px;}</style></defs><g id="Layer_1-2"><rect class="cls-7" x="9.14" y="31.95" width="434.14" height="182.48" rx="26.51" ry="26.51" transform="translate(-17.41 39.55) rotate(-9.62)"/><path class="cls-5" d="M88.51,186.16l-30.25,5.13c-.46.08-.9-.03-1.31-.32-.41-.29-.66-.71-.75-1.24s.45-1.67,1.63-3.38c1.18-1.71,1.66-3.22,1.44-4.54l-9.53-56.2c-.29-1.7-1.27-3.16-2.95-4.39-1.68-1.22-2.56-2.11-2.65-2.65-.12-.69.41-1.3,1.6-1.82,3.36-1.29,6.89-2.84,10.6-4.66,3.7-1.82,6.71-3.3,9.02-4.45,2.31-1.15,3.89-1.79,4.74-1.94,1.54-.26,2.55,1,3.02,3.78l.24,1.39c2.45-4.78,6.53-7.66,12.25-8.63,7.8-1.32,14.7.19,20.68,4.54,5.98,4.35,9.65,10.5,11,18.46s-.14,15.21-4.56,21.28c-4.41,6.07-10.33,9.74-17.75,11-5.79.98-10.69-.45-14.68-4.31l4.13,24.34c.22,1.31,1.17,2.58,2.85,3.81,1.68,1.22,2.56,2.11,2.65,2.65s0,1.01-.3,1.42c-.29.41-.66.65-1.13.73ZM92.1,130c-.86-5.1-2.24-9-4.13-11.7-1.89-2.7-4.03-3.85-6.42-3.44s-3.9,2.07-4.75,5.04c-.85,2.97-.86,6.88-.03,11.75s2.22,8.9,4.12,11.64c1.9,2.74,4,3.91,6.32,3.52s3.92-2.09,4.8-5.1c.88-3.01.91-6.91.1-11.7Z"/><path class="cls-5" d="M220.11,136.19c-6.03,1.02-11.22-.07-15.57-3.26-4.36-3.2-7.12-8.23-8.28-15.11l-3.99-23.52c-.37-2.16-2.37-2.94-6-2.32-.31.05-.8.18-1.49.37-.68.2-1.18.3-1.5.31-.32.01-.66-.11-1.02-.36-.36-.26-.61-.77-.74-1.54-.16-.93-.23-1.59-.22-1.99.01-.4.18-.81.51-1.22.33-.41.9-.77,1.73-1.07,2.48-.82,4.99-1.88,7.51-3.18,2.52-1.3,5.11-2.91,7.76-4.83,2.65-1.92,4.71-4.21,6.16-6.89,1.45-2.67,1.98-5.44,1.57-8.31-.29-1.7.07-2.63,1.07-2.8,1.47-.25,2.46-.12,2.99.39.52.51.95,1.73,1.28,3.66,1.07,6.34,1.86,10.73,2.36,13.19.39,1.84,3.14,2.33,8.24,1.46.31-.05.63-.13.97-.22.34-.1.61-.16.8-.2s.41-.05.65-.05c.24,0,.43.07.57.2.14.14.28.35.41.65.13.3.23.68.31,1.14.51,3.01-1.26,4.78-5.3,5.31-.31.05-1.01.13-2.11.24-1.1.11-1.76.18-1.99.22l5.58,32.91c.62,3.63,2.08,5.25,4.4,4.86,2.63-.45,4.17-2.14,4.62-5.08.1-.33.22-.79.36-1.37.14-.58.25-1.01.32-1.31.07-.29.18-.61.32-.95.14-.34.29-.6.46-.79.17-.19.37-.3.6-.34,1.31-.22,2.11.48,2.38,2.1.76,4.48-.22,8.64-2.95,12.48-2.73,3.84-6.99,6.25-12.78,7.23Z"/><path class="cls-5" d="M311.64,115.66c-3.87,3.92-8.43,6.32-13.68,7.21-4.71.8-9.22.25-13.51-1.64-4.3-1.89-7.55-4.92-9.76-9.07-.03-.15-.08-.22-.16-.21-.75,4.5-2.82,8.45-6.22,11.84-3.4,3.4-7.18,5.45-11.35,6.16-4.48.76-8.4-.22-11.77-2.95-3.36-2.73-5.48-6.68-6.36-11.86-1.1-6.49.18-11.71,3.84-15.67,3.66-3.96,8.27-6.41,13.83-7.35,3.86-.65,7.31-.48,10.34.51-.27-.67-.58-1.53-.92-2.59-.85-2.64-2.08-4.63-3.7-5.99-1.62-1.35-3.62-1.79-6-1.31-2.09.35-4.93,2.55-8.54,6.57-4.02,4.9-7.07,7.52-9.16,7.87-2.47.42-4.17-2.07-5.08-7.48-1.34-7.88-.38-12.09,2.86-12.64.93-.16,2.71.06,5.35.64,2.64.59,4.48.67,5.53.25,2.26-1.18,5.54-2.47,9.83-3.87,4.29-1.4,7.87-2.35,10.73-2.83,4.33-.73,8.21-.46,11.64.83,3.44,1.29,6.21,3.24,8.33,5.86,2.11,2.62,3.97,5.59,5.56,8.89,1.59,3.31,2.97,6.59,4.11,9.85s2.28,6.21,3.41,8.84c1.12,2.63,2.42,4.58,3.91,5.83,1.48,1.26,3.19,1.49,5.12.68,1.11-.5,1.89-.24,2.34.8.45,1.04.28,1.98-.53,2.83ZM268.95,98.7c-.88-.96-2.17-1.3-3.87-1.01s-3.09,1.22-4.18,2.79c-1.08,1.58-1.41,3.64-.98,6.19.34,2.01,1.03,3.52,2.08,4.53,1.05,1.02,2.29,1.32,3.73.92,1.97-.57,3.22-2.1,3.76-4.57.53-2.47.35-5.42-.55-8.85Z"/><path class="cls-5" d="M174.53,94.8c-7.14-3.88-15.72-4.96-25.77-3.26s-17.48,5.51-22.79,11.49c-5.3,5.99-7.23,13.23-5.79,21.73,1.39,8.19,5.72,14.31,13.01,18.36,7.28,4.05,15.64,5.28,25.06,3.68,9.66-1.64,17.28-5.55,22.86-11.75,5.58-6.19,7.68-13.42,6.28-21.69s-5.73-14.68-12.86-18.56ZM155.85,135.7c-3.29-.18-6.03-2.81-8.23-7.92-.85-1.97-1.5-4.02-1.98-6.16-.75-3.41-1.02-7.03-.82-10.88.14-2.66.78-4.7,1.92-6.14.35-.45.75-.81,1.17-1.11.92-.65,2-.96,3.24-.89,3.29.18,6.05,2.82,8.29,7.92.86,1.96,1.53,4.01,2.01,6.14.77,3.42,1.05,7.05.85,10.91-.14,2.66-.78,4.71-1.92,6.14-.36.45-.76.82-1.19,1.12-.94.65-2.05.95-3.33.88Z"/><text class="cls-4" transform="translate(327.28 118.02) rotate(-9.62)"><tspan x="0" y="0">...</tspan></text><text class="cls-1" transform="translate(126.11 182.91) rotate(-9.62)"><tspan class="cls-6" x="0" y="0">L</tspan><tspan x="15.59" y="0">O </tspan><tspan class="cls-3" x="45.09" y="0">F</tspan><tspan class="cls-6" x="60.99" y="0">A</tspan><tspan class="cls-2" x="81.44" y="0">C</tspan><tspan x="100.17" y="0">CIAMO BENE</tspan></text></g></svg>