<?xml version="1.0" encoding="UTF-8"?><svg id="Layer_2" xmlns="http://www.w3.org/2000/svg" viewBox="0 0 448.11 448.11"><defs><style>.cls-1{fill:none;stroke:#000;stroke-miterlimit:10;stroke-width:35px;}.cls-2,.cls-3{stroke-width:0px;}.cls-3{fill:#fcb614;}</style></defs><g id="Layer_1-2"><path class="cls-3" d="M416.83,226.83c0-106.29-86.48-192.77-192.77-192.77S31.29,120.53,31.29,226.83c0,58.74,26.42,111.42,67.98,146.8v-193.37c0-6.9-2.91-13.34-8.71-19.31-5.81-5.96-8.71-10.04-8.71-12.24,0-2.82,2.51-4.86,7.54-6.12,14.13-2.82,29.12-6.59,44.97-11.3,15.85-4.71,28.73-8.55,38.61-11.54,9.89-2.98,16.56-4.47,20.01-4.47,6.28,0,9.42,5.65,9.42,16.95v5.65c12.87-17.26,30.92-25.9,54.16-25.9,31.71,0,57.92,10.6,78.64,31.79,20.72,21.19,31.08,47.96,31.08,80.29s-10.76,59.97-32.26,81c-21.51,21.04-47.33,31.55-77.46,31.55-23.55,0-41.91-8.95-55.1-26.84v98.89c0,3.21,1.06,6.53,3.16,9.97,6.4.64,12.88.98,19.45.98,106.29,0,192.77-86.48,192.77-192.77Z"/><path class="cls-3" d="M233,289.04c9.42,0,16.87-5.65,22.37-16.95,5.49-11.3,8.24-26.68,8.24-46.15,0-20.72-2.83-37.04-8.48-48.98-5.65-11.93-13.35-17.89-23.07-17.89s-16.8,5.58-22.13,16.72c-5.34,11.15-8.01,26.61-8.01,46.38s2.83,36.66,8.48,48.74c5.65,12.09,13.19,18.13,22.6,18.13Z"/><path class="cls-2" d="M224.06,19.05C109.49,19.05,16.29,112.26,16.29,226.83c0,67.77,32.62,128.06,82.98,166.01v-9.38c-46-36.7-75.48-93.22-75.48-156.63C23.79,116.22,113.45,26.55,224.06,26.55s200.27,89.66,200.27,200.27-89.66,200.27-200.27,200.27c-4.33,0-8.61-.15-12.87-.42.13.14.27.28.4.42h-42.88c17.63,4.88,36.19,7.5,55.36,7.5,114.57,0,207.77-93.21,207.77-207.77S338.62,19.05,224.06,19.05Z"/><path class="cls-2" d="M31.29,226.83c0-106.29,86.48-192.77,192.77-192.77s192.77,86.48,192.77,192.77-86.48,192.77-192.77,192.77c-6.56,0-13.05-.33-19.45-.98,1.39,2.28,3.24,4.61,5.55,6.98.36.37.69.72,1.02,1.07,4.26.27,8.55.42,12.87.42,110.61,0,200.27-89.66,200.27-200.27S334.66,26.55,224.06,26.55,23.79,116.22,23.79,226.83c0,63.42,29.48,119.94,75.48,156.63v-9.83c-41.57-35.39-67.98-88.06-67.98-146.8Z"/><path class="cls-2" d="M201.45,309.76c13.19,17.89,31.55,26.84,55.1,26.84,30.14,0,55.96-10.51,77.46-31.55,21.5-21.03,32.26-48.03,32.26-81s-10.36-59.1-31.08-80.29c-20.72-21.19-46.94-31.79-78.64-31.79-23.24,0-41.29,8.64-54.16,25.9v-5.65c0-11.3-3.14-16.95-9.42-16.95-3.46,0-10.12,1.49-20.01,4.47-9.89,2.99-22.77,6.83-38.61,11.54-15.86,4.71-30.84,8.48-44.97,11.3-5.03,1.26-7.54,3.3-7.54,6.12,0,2.2,2.9,6.28,8.71,12.24,5.81,5.97,8.71,12.41,8.71,19.31v193.37c29.01,24.7,65.39,40.97,105.34,44.99-2.1-3.44-3.16-6.76-3.16-9.97v-98.89ZM209.93,175.79c5.33-11.14,12.71-16.72,22.13-16.72s17.42,5.97,23.07,17.89c5.65,11.93,8.48,28.25,8.48,48.98,0,19.47-2.75,34.85-8.24,46.15-5.5,11.3-12.95,16.95-22.37,16.95s-16.95-6.04-22.6-18.13c-5.65-12.08-8.48-28.33-8.48-48.74s2.66-35.24,8.01-46.38Z"/><path class="cls-2" d="M211.19,426.67c-42.19-2.68-80.83-18.41-111.92-43.21v9.38c20.53,15.47,44.01,27.22,69.43,34.26h42.88c-.13-.14-.27-.28-.4-.42Z"/><path class="cls-2" d="M210.16,425.61c-2.32-2.38-4.16-4.71-5.55-6.98-39.95-4.02-76.34-20.3-105.34-44.99v9.83c31.09,24.8,69.73,40.54,111.92,43.21-.33-.35-.66-.7-1.02-1.07Z"/><circle class="cls-1" cx="224.06" cy="224.06" r="206.56"/></g></svg>