<?xml version="1.0" encoding="UTF-8"?><svg id="Layer_2" xmlns="http://www.w3.org/2000/svg" viewBox="0 0 256.3 253.94"><defs><style>.cls-1{letter-spacing:0em;}.cls-2{font-family:Elanor-ExtraBold, Elanor;font-size:51.62px;font-weight:700;}.cls-3{stroke-width:0px;}.cls-4{fill:#fcb614;stroke:#000;stroke-width:2px;}</style></defs><g id="Layer_2-2"><path class="cls-4" d="M216.69,51.17c-4.35,4.96-10.62,8.15-16.34,11.2-6.8,3.61-13.81,6.8-20.94,9.69-14.31,5.81-29.07,10.41-43.79,15.01-14.02,4.38-28.06,8.76-41.7,14.21-12.7,5.09-25.09,11.06-36.56,18.55-11.36,7.42-21.75,16.3-30.17,26.97-.16.2-.31.4-.46.6-3.62-15.22-11.41-29.01-17.68-43.25-1.83-4.15-3.53-8.35-4.95-12.64,8.73-9.29,18.95-17.01,29.96-23.4,11.24-6.52,23.18-11.72,35.34-16.26,12.41-4.64,25.07-8.54,37.7-12.51,13.27-4.18,26.53-8.46,39.42-13.71,12.83-5.22,25.27-11.44,36.69-19.31.69-.47,1.36-.95,2.04-1.43,6.72,13.25,14.76,25.84,24.01,37.46,2.39,3.01,4.88,5.95,7.43,8.83Z"/><path class="cls-3" d="M220.63,49.87c-10.21-11.36-19.23-23.78-26.8-37.05-2.04-3.58-3.98-7.22-5.82-10.91,0-.47-.16-.93-.45-1.27-.72-.83-1.87-.81-2.69-.19-11.02,8.18-23.21,14.61-35.82,19.99-12.78,5.45-25.98,9.85-39.22,14.05-12.78,4.06-25.62,7.95-38.24,12.5-12.16,4.4-24.16,9.38-35.51,15.61-11.28,6.18-21.97,13.59-31.17,22.62-1.13,1.12-2.24,2.26-3.33,3.41-.19.2-.33.43-.45.67-.73.37-1.33,1.23-1.08,2.04,5.23,16.3,14.27,30.98,20.04,47.05,1.61,4.5,2.91,9.12,3.76,13.83.31,1.66,2.5,2.08,3.46.74,7.83-10.96,17.81-20.15,28.86-27.8,11.2-7.75,23.48-13.89,36.04-19.1,13.39-5.55,27.19-9.97,41-14.3,14.79-4.63,29.63-9.16,44.08-14.79,7.17-2.79,14.24-5.86,21.11-9.33,3.39-1.7,6.72-3.51,10-5.43,3.07-1.81,6.12-3.75,8.77-6.15,1.3-1.18,2.5-2.49,3.58-3.88.5-.65.39-1.73-.14-2.33ZM200.35,62.37c-6.8,3.61-13.81,6.8-20.94,9.69-14.31,5.81-29.07,10.41-43.79,15.01-14.02,4.38-28.06,8.76-41.7,14.21-12.7,5.09-25.09,11.06-36.56,18.55-11.36,7.42-21.75,16.3-30.17,26.97-.16.2-.31.4-.46.6-3.62-15.22-11.41-29.01-17.68-43.25-1.83-4.15-3.53-8.35-4.95-12.64,8.73-9.29,18.95-17.01,29.96-23.4,11.24-6.52,23.18-11.72,35.34-16.26,12.41-4.64,25.07-8.54,37.7-12.51,13.27-4.18,26.53-8.46,39.42-13.71,12.83-5.22,25.27-11.44,36.69-19.31.69-.47,1.36-.95,2.04-1.43,6.72,13.25,14.76,25.84,24.01,37.46,2.39,3.01,4.88,5.95,7.43,8.83-4.35,4.96-10.62,8.15-16.34,11.2Z"/><path class="cls-4" d="M200.44,128.47c-1.51,4-4.66,5.71-7.49,7.42-3.37,2.02-6.98,3.56-10.73,4.76-7.54,2.42-15.64,3.51-23.73,4.6-7.7,1.04-15.41,2.07-22.62,4.3-6.7,2.08-12.99,5.15-18.34,9.98-5.29,4.79-9.63,11.3-12.29,20.12-.05.17-.09.33-.14.5-5.98-16.39-14.22-32.35-21.62-48.39-2.16-4.67-4.25-9.37-6.18-14.09,3.19-7.34,7.7-12.71,13.03-16.53,5.44-3.9,11.64-6.29,18.13-7.95,6.63-1.69,13.6-2.58,20.53-3.55,7.28-1.02,14.53-2.15,21.31-4.35,6.75-2.18,13.01-5.49,18.24-10.72.31-.31.62-.63.93-.96,7.44,15.14,15.54,29.93,24.16,44.04,2.23,3.65,4.5,7.25,6.8,10.81Z"/><path class="cls-3" d="M202.58,128.1c-9.16-14.07-17.83-28.92-25.81-44.3-2.15-4.15-4.25-8.33-6.3-12.54-.12-.48-.33-.99-.59-1.4-.65-1.02-1.36-1.28-1.73-.85-4.9,5.65-10.95,9.22-17.52,11.63-6.66,2.44-13.85,3.7-21.1,4.75-7,1.02-14.09,1.84-20.87,3.4-6.53,1.51-12.82,3.67-18.4,7.24-5.55,3.55-10.42,8.49-13.98,15.44-.44.86-.85,1.75-1.25,2.66-.07.16-.1.36-.12.57-.36.2-.53.93-.17,1.82,7.25,17.88,16.49,35.06,24.02,52.84,2.11,4.98,4.04,10,5.73,15.01.6,1.77,2.07,2.73,2.35,1.59,2.23-9.25,6.22-16.19,11.27-21.28,5.12-5.16,11.3-8.42,17.88-10.67,7.02-2.39,14.57-3.52,22.16-4.56,8.12-1.11,16.3-2.1,23.96-4.31,3.8-1.09,7.48-2.49,10.93-4.35,1.7-.91,3.35-1.94,4.93-3.1,1.48-1.09,2.91-2.32,3.99-4.13.53-.89.95-1.93,1.29-3.08.15-.54-.18-1.66-.66-2.4ZM192.95,135.89c-3.37,2.02-6.98,3.56-10.73,4.76-7.54,2.42-15.64,3.51-23.73,4.6-7.7,1.04-15.41,2.07-22.62,4.3-6.7,2.08-12.99,5.15-18.34,9.98-5.29,4.79-9.63,11.3-12.29,20.12-.05.17-.09.33-.14.5-5.98-16.39-14.22-32.35-21.62-48.39-2.16-4.67-4.25-9.37-6.18-14.09,3.19-7.34,7.7-12.71,13.03-16.53,5.44-3.9,11.64-6.29,18.13-7.95,6.63-1.69,13.6-2.58,20.53-3.55,7.28-1.02,14.53-2.15,21.31-4.35,6.75-2.18,13.01-5.49,18.24-10.72.31-.31.62-.63.93-.96,7.44,15.14,15.54,29.93,24.16,44.04,2.23,3.65,4.5,7.25,6.8,10.81-1.51,4-4.66,5.71-7.49,7.42Z"/><path class="cls-4" d="M244.15,181.93c-2.33,4.39-6.43,6.56-10.14,8.69-4.41,2.51-9.06,4.56-13.86,6.26-9.63,3.42-19.81,5.5-29.96,7.58-9.67,1.99-19.36,3.96-28.55,7.14-8.55,2.97-16.71,6.93-23.89,12.64-7.12,5.66-13.24,13.02-17.56,22.64-.08.18-.16.36-.23.54-5.53-16.6-13.92-32.49-21.25-48.56-2.14-4.68-4.19-9.4-6.05-14.16,4.8-8.11,11.01-14.29,18.06-18.93,7.19-4.74,15.16-7.97,23.41-10.47,8.42-2.55,17.16-4.28,25.87-6.11,9.14-1.92,18.26-3.94,26.93-7.04,8.63-3.08,16.77-7.29,23.86-13.41.43-.37.84-.74,1.26-1.12,7.49,15.12,15.83,29.79,24.91,43.68,2.35,3.59,4.75,7.14,7.19,10.62Z"/><path class="cls-3" d="M246.86,181.29c-9.75-13.79-18.79-28.46-26.92-43.77-2.19-4.13-4.32-8.3-6.38-12.5-.09-.49-.29-1-.57-1.41-.69-1-1.54-1.19-2.05-.7-6.72,6.52-14.65,10.99-23.07,14.28-8.54,3.34-17.6,5.49-26.72,7.43-8.8,1.88-17.69,3.56-26.28,5.98-8.28,2.35-16.32,5.34-23.66,9.75-7.29,4.38-13.9,10.16-19.11,17.9-.64.96-1.26,1.95-1.86,2.95-.11.18-.17.39-.21.62-.47.26-.77,1.04-.43,1.94,6.93,18.04,16.42,35.09,23.72,52.99,2.04,5.01,3.87,10.08,5.38,15.18.54,1.8,2.25,2.64,2.73,1.41,3.82-10.02,9.58-17.79,16.42-23.75,6.94-6.04,14.98-10.18,23.41-13.31,8.98-3.33,18.48-5.39,28.01-7.36,10.2-2.11,20.46-4.09,30.22-7.3,4.84-1.59,9.56-3.49,14.05-5.85,2.22-1.16,4.37-2.43,6.47-3.83,1.96-1.32,3.88-2.79,5.42-4.81.76-.99,1.4-2.14,1.96-3.39.25-.59-.03-1.73-.54-2.46ZM234.01,190.62c-4.41,2.51-9.06,4.56-13.86,6.26-9.63,3.42-19.81,5.5-29.96,7.58-9.67,1.99-19.36,3.96-28.55,7.14-8.55,2.97-16.71,6.93-23.89,12.64-7.12,5.66-13.24,13.02-17.56,22.64-.08.18-.16.36-.23.54-5.53-16.6-13.92-32.49-21.25-48.56-2.14-4.68-4.19-9.4-6.05-14.16,4.8-8.11,11.01-14.29,18.06-18.93,7.19-4.74,15.16-7.97,23.41-10.47,8.42-2.55,17.16-4.28,25.87-6.11,9.14-1.92,18.26-3.94,26.93-7.04,8.63-3.08,16.77-7.29,23.86-13.41.43-.37.84-.74,1.26-1.12,7.49,15.12,15.83,29.79,24.91,43.68,2.35,3.59,4.75,7.14,7.19,10.62-2.33,4.39-6.43,6.56-10.14,8.69Z"/><text class="cls-2" transform="translate(37.13 118.48) rotate(-25.57)"><tspan x="0" y="0">dic</tspan><tspan class="cls-1" x="76.91" y="0">on</tspan><tspan x="140.97" y="0">o</tspan><tspan x="61.94" y="61.94">di</tspan><tspan class="cls-1" x="45.66" y="123.89">n</tspan><tspan x="78.75" y="123.89">oi</tspan></text></g></svg>