<?xml version="1.0" encoding="utf-8"?>
<!-- Generator: Adobe Illustrator 28.2.0, SVG Export Plug-In . SVG Version: 6.00 Build 0)  -->
<svg version="1.1" id="Layer_2_00000131329153274515420610000015632696711127487392_"
	 xmlns="http://www.w3.org/2000/svg" xmlns:xlink="http://www.w3.org/1999/xlink" x="0px" y="0px" viewBox="0 0 256.3 253.9"
	 style="enable-background:new 0 0 256.3 253.9;" xml:space="preserve">
<style type="text/css">
	.st0{fill:#FCB614;stroke:#000000;stroke-width:2;}
	.st1{enable-background:new    ;}
</style>
<g id="Layer_2-2">
	<path class="st0" d="M216.7,51.2c-4.4,5-10.6,8.2-16.3,11.2c-6.8,3.6-13.8,6.8-20.9,9.7c-14.3,5.8-29.1,10.4-43.8,15
		c-14,4.4-28.1,8.8-41.7,14.2c-12.7,5.1-25.1,11.1-36.6,18.6c-11.4,7.4-21.8,16.3-30.2,27c-0.2,0.2-0.3,0.4-0.5,0.6
		c-3.6-15.2-11.4-29-17.7-43.2c-1.8-4.2-3.5-8.3-4.9-12.6c8.7-9.3,19-17,30-23.4c11.2-6.5,23.2-11.7,35.3-16.3
		c12.4-4.6,25.1-8.5,37.7-12.5c13.3-4.2,26.5-8.5,39.4-13.7c12.8-5.2,25.3-11.4,36.7-19.3c0.7-0.5,1.4-0.9,2-1.4
		c6.7,13.2,14.8,25.8,24,37.5C211.6,45.4,214.1,48.3,216.7,51.2L216.7,51.2z"/>
	<path d="M220.6,49.9c-10.2-11.4-19.2-23.8-26.8-37c-2-3.6-4-7.2-5.8-10.9c0-0.5-0.2-0.9-0.4-1.3c-0.7-0.8-1.9-0.8-2.7-0.2
		c-11,8.2-23.2,14.6-35.8,20c-12.8,5.4-26,9.9-39.2,14C97,38.6,84.2,42.4,71.6,47c-12.2,4.4-24.2,9.4-35.5,15.6
		c-11.3,6.2-22,13.6-31.2,22.6c-1.1,1.1-2.2,2.3-3.3,3.4c-0.2,0.2-0.3,0.4-0.5,0.7c-0.7,0.4-1.3,1.2-1.1,2c5.2,16.3,14.3,31,20,47
		c1.6,4.5,2.9,9.1,3.8,13.8c0.3,1.7,2.5,2.1,3.5,0.7c7.8-11,17.8-20.1,28.9-27.8c11.2-7.8,23.5-13.9,36-19.1
		c13.4-5.6,27.2-10,41-14.3c14.8-4.6,29.6-9.2,44.1-14.8c7.2-2.8,14.2-5.9,21.1-9.3c3.4-1.7,6.7-3.5,10-5.4c3.1-1.8,6.1-3.8,8.8-6.2
		c1.3-1.2,2.5-2.5,3.6-3.9C221.2,51.5,221.1,50.5,220.6,49.9L220.6,49.9z M200.4,62.4c-6.8,3.6-13.8,6.8-20.9,9.7
		c-14.3,5.8-29.1,10.4-43.8,15c-14,4.4-28.1,8.8-41.7,14.2c-12.7,5.1-25.1,11.1-36.6,18.6c-11.4,7.4-21.8,16.3-30.2,27
		c-0.2,0.2-0.3,0.4-0.5,0.6c-3.6-15.2-11.4-29-17.7-43.2c-1.8-4.2-3.5-8.3-4.9-12.6c8.7-9.3,19-17,30-23.4
		c11.2-6.5,23.2-11.7,35.3-16.3c12.4-4.6,25.1-8.5,37.7-12.5c13.3-4.2,26.5-8.5,39.4-13.7c12.8-5.2,25.3-11.4,36.7-19.3
		c0.7-0.5,1.4-0.9,2-1.4c6.7,13.2,14.8,25.8,24,37.5c2.4,3,4.9,6,7.4,8.8C212.3,56.1,206.1,59.3,200.4,62.4L200.4,62.4z"/>
	<path class="st0" d="M200.4,128.5c-1.5,4-4.7,5.7-7.5,7.4c-3.4,2-7,3.6-10.7,4.8c-7.5,2.4-15.6,3.5-23.7,4.6
		c-7.7,1-15.4,2.1-22.6,4.3c-6.7,2.1-13,5.1-18.3,10c-5.3,4.8-9.6,11.3-12.3,20.1c-0.1,0.2-0.1,0.3-0.1,0.5
		c-6-16.4-14.2-32.4-21.6-48.4c-2.2-4.7-4.2-9.4-6.2-14.1c3.2-7.3,7.7-12.7,13-16.5c5.4-3.9,11.6-6.3,18.1-7.9
		c6.6-1.7,13.6-2.6,20.5-3.6c7.3-1,14.5-2.2,21.3-4.3c6.8-2.2,13-5.5,18.2-10.7c0.3-0.3,0.6-0.6,0.9-1c7.4,15.1,15.5,29.9,24.2,44
		C195.9,121.3,198.1,124.9,200.4,128.5L200.4,128.5z"/>
	<path d="M202.6,128.1c-9.2-14.1-17.8-28.9-25.8-44.3c-2.1-4.2-4.2-8.3-6.3-12.5c-0.1-0.5-0.3-1-0.6-1.4c-0.6-1-1.4-1.3-1.7-0.8
		c-4.9,5.7-10.9,9.2-17.5,11.6c-6.7,2.4-13.9,3.7-21.1,4.8c-7,1-14.1,1.8-20.9,3.4c-6.5,1.5-12.8,3.7-18.4,7.2
		c-5.6,3.6-10.4,8.5-14,15.4c-0.4,0.9-0.8,1.8-1.2,2.7c-0.1,0.2-0.1,0.4-0.1,0.6c-0.4,0.2-0.5,0.9-0.2,1.8
		c7.2,17.9,16.5,35.1,24,52.8c2.1,5,4,10,5.7,15c0.6,1.8,2.1,2.7,2.3,1.6c2.2-9.2,6.2-16.2,11.3-21.3c5.1-5.2,11.3-8.4,17.9-10.7
		c7-2.4,14.6-3.5,22.2-4.6c8.1-1.1,16.3-2.1,24-4.3c3.8-1.1,7.5-2.5,10.9-4.4c1.7-0.9,3.4-1.9,4.9-3.1c1.5-1.1,2.9-2.3,4-4.1
		c0.5-0.9,0.9-1.9,1.3-3.1C203.4,129.9,203.1,128.8,202.6,128.1L202.6,128.1z M192.9,135.9c-3.4,2-7,3.6-10.7,4.8
		c-7.5,2.4-15.6,3.5-23.7,4.6c-7.7,1-15.4,2.1-22.6,4.3c-6.7,2.1-13,5.1-18.3,10c-5.3,4.8-9.6,11.3-12.3,20.1
		c-0.1,0.2-0.1,0.3-0.1,0.5c-6-16.4-14.2-32.4-21.6-48.4c-2.2-4.7-4.2-9.4-6.2-14.1c3.2-7.3,7.7-12.7,13-16.5
		c5.4-3.9,11.6-6.3,18.1-7.9c6.6-1.7,13.6-2.6,20.5-3.6c7.3-1,14.5-2.2,21.3-4.3c6.8-2.2,13-5.5,18.2-10.7c0.3-0.3,0.6-0.6,0.9-1
		c7.4,15.1,15.5,29.9,24.2,44c2.2,3.7,4.5,7.2,6.8,10.8C198.9,132.5,195.8,134.2,192.9,135.9L192.9,135.9z"/>
	<path class="st0" d="M244.1,181.9c-2.3,4.4-6.4,6.6-10.1,8.7c-4.4,2.5-9.1,4.6-13.9,6.3c-9.6,3.4-19.8,5.5-30,7.6
		c-9.7,2-19.4,4-28.6,7.1c-8.6,3-16.7,6.9-23.9,12.6c-7.1,5.7-13.2,13-17.6,22.6c-0.1,0.2-0.2,0.4-0.2,0.5
		c-5.5-16.6-13.9-32.5-21.2-48.6c-2.1-4.7-4.2-9.4-6.1-14.2c4.8-8.1,11-14.3,18.1-18.9c7.2-4.7,15.2-8,23.4-10.5
		c8.4-2.6,17.2-4.3,25.9-6.1c9.1-1.9,18.3-3.9,26.9-7c8.6-3.1,16.8-7.3,23.9-13.4c0.4-0.4,0.8-0.7,1.3-1.1
		c7.5,15.1,15.8,29.8,24.9,43.7C239.3,174.9,241.7,178.4,244.1,181.9L244.1,181.9z"/>
	<path d="M246.9,181.3c-9.8-13.8-18.8-28.5-26.9-43.8c-2.2-4.1-4.3-8.3-6.4-12.5c-0.1-0.5-0.3-1-0.6-1.4c-0.7-1-1.5-1.2-2.1-0.7
		c-6.7,6.5-14.6,11-23.1,14.3c-8.5,3.3-17.6,5.5-26.7,7.4c-8.8,1.9-17.7,3.6-26.3,6c-8.3,2.4-16.3,5.3-23.7,9.8
		c-7.3,4.4-13.9,10.2-19.1,17.9c-0.6,1-1.3,1.9-1.9,2.9c-0.1,0.2-0.2,0.4-0.2,0.6c-0.5,0.3-0.8,1-0.4,1.9c6.9,18,16.4,35.1,23.7,53
		c2,5,3.9,10.1,5.4,15.2c0.5,1.8,2.2,2.6,2.7,1.4c3.8-10,9.6-17.8,16.4-23.8c6.9-6,15-10.2,23.4-13.3c9-3.3,18.5-5.4,28-7.4
		c10.2-2.1,20.5-4.1,30.2-7.3c4.8-1.6,9.6-3.5,14.1-5.9c2.2-1.2,4.4-2.4,6.5-3.8c2-1.3,3.9-2.8,5.4-4.8c0.8-1,1.4-2.1,2-3.4
		C247.6,183.2,247.4,182,246.9,181.3L246.9,181.3z M234,190.6c-4.4,2.5-9.1,4.6-13.9,6.3c-9.6,3.4-19.8,5.5-30,7.6
		c-9.7,2-19.4,4-28.6,7.1c-8.6,3-16.7,6.9-23.9,12.6c-7.1,5.7-13.2,13-17.6,22.6c-0.1,0.2-0.2,0.4-0.2,0.5
		c-5.5-16.6-13.9-32.5-21.2-48.6c-2.1-4.7-4.2-9.4-6.1-14.2c4.8-8.1,11-14.3,18.1-18.9c7.2-4.7,15.2-8,23.4-10.5
		c8.4-2.6,17.2-4.3,25.9-6.1c9.1-1.9,18.3-3.9,26.9-7c8.6-3.1,16.8-7.3,23.9-13.4c0.4-0.4,0.8-0.7,1.3-1.1
		c7.5,15.1,15.8,29.8,24.9,43.7c2.4,3.6,4.8,7.1,7.2,10.6C241.8,186.3,237.7,188.5,234,190.6L234,190.6z"/>
	<g class="st1">
		<path d="M62.1,102.1c0.3,0.5,0.8,0.9,1.7,1.3c0.9,0.3,1.3,0.6,1.4,0.8c0.2,0.5,0.1,0.9-0.4,1.1l-10.2,4.9
			c-0.7,0.3-1.2,0.1-1.4-0.6l-0.8-1.9c-0.4,3-2,5.2-4.8,6.5c-2.8,1.3-5.5,1.4-8.3,0.2c-2.8-1.2-5-3.5-6.6-6.9
			c-1.6-3.4-1.9-6.6-1-9.6c1-3,3-5.2,6.1-6.4c2.4-1,4.6-0.9,6.7,0.2L41,84c-0.3-0.7-0.9-1.2-1.8-1.5c-0.9-0.3-1.4-0.6-1.4-0.7
			c-0.1-0.3,0-0.6,0.4-1c1.3-0.9,2.6-2,3.9-3.3c1.4-1.2,2.5-2.2,3.3-3c0.9-0.8,1.4-1.2,1.8-1.4c0.6-0.3,1.2,0.1,1.7,1.2
			c0.2,0.4,0.4,1,0.8,1.7c0.3,0.7,0.6,1.3,0.8,1.8L62.1,102.1z M42.9,102.8c0.9,1.9,1.9,3.3,2.9,4.1c1.1,0.8,2,1.1,2.8,0.7
			c0.9-0.4,1.3-1.4,1.3-2.8c0-1.4-0.5-3.1-1.5-5.1c-0.9-1.9-1.9-3.3-2.9-4.1c-1-0.8-2-1.1-2.9-0.6c-0.9,0.4-1.3,1.3-1.3,2.8
			C41.4,99.2,41.9,100.9,42.9,102.8z"/>
		<path d="M57,67.2c0.9-0.4,2-0.5,3.3-0.1c1.3,0.4,2.3,1.3,2.9,2.7c0.7,1.4,0.7,3,0.1,4.8c-0.6,1.8-1.7,3-3.2,3.7
			c-0.8,0.4-1.9,0.3-3.2-0.3c-1.3-0.6-2.2-1.3-2.6-2.1c-0.7-1.5-0.8-3.1-0.4-4.9C54.5,69.1,55.5,67.9,57,67.2z M70.5,82l6.2,13
			c0.3,0.7,0.9,1.2,1.7,1.4c0.8,0.3,1.3,0.5,1.4,0.7c0.1,0.2,0.1,0.4,0,0.6c-0.1,0.2-0.2,0.4-0.4,0.5L67.4,104
			c-0.2,0.1-0.4,0.1-0.6,0s-0.4-0.2-0.5-0.4c-0.1-0.2,0-0.7,0.4-1.5c0.3-0.8,0.3-1.6,0-2.3l-5.4-11.3c-0.3-0.7-0.9-1.2-1.8-1.5
			c-0.9-0.3-1.4-0.6-1.5-0.8c-0.1-0.3,0-0.6,0.5-1c1.2-0.9,2.5-2,3.9-3.2c1.4-1.2,2.5-2.2,3.3-3c0.8-0.8,1.4-1.2,1.8-1.4
			c0.6-0.3,1.2,0.1,1.7,1.2c0.2,0.4,0.4,0.9,0.7,1.5C70.1,81.1,70.4,81.6,70.5,82z"/>
		<path d="M76.2,86.6c-1.8-3.3-1.9-6.5-0.4-9.7c1.5-3.2,4.1-5.7,7.8-7.5c1.6-0.8,3.3-1.3,5-1.7c1.7-0.3,3.3-0.3,4.8,0.1
			c1.5,0.4,2.5,1.2,3.1,2.3c0.6,1.3,0.6,2.5-0.2,3.7c-0.8,1.1-1.7,2-2.8,2.5c-0.9,0.4-1.8,0.6-2.7,0.5c-0.9-0.1-1.5-0.4-1.8-0.9
			c-0.3-0.6-0.2-1.3,0.2-2.1c0.4-0.8,0.5-1.4,0.3-1.9c-0.2-0.5-0.6-0.8-1.1-1c-0.5-0.1-1.1,0-1.8,0.3c-1.5,0.7-2.4,1.9-2.6,3.4
			c-0.2,1.6,0.1,3.1,0.9,4.5c1.2,1.8,2.7,3,4.6,3.5c1.9,0.5,3.9,0.3,5.9-0.7c1.4-0.7,2.5-1.5,3.3-2.6s1.3-2.2,1.5-3.3
			c0-0.1,0-0.3,0-0.5c0-0.2,0-0.4,0.1-0.4c0-0.1,0.1-0.1,0.2-0.2c0.2-0.1,0.3-0.1,0.5,0c0.2,0.1,0.3,0.2,0.4,0.4
			c1.3,2.8,1.4,5.7,0.3,8.9c-1.2,3.1-3.6,5.5-7.2,7.3c-3.4,1.6-6.8,2.1-10.2,1.4S78.1,90.1,76.2,86.6z"/>
	</g>
	<g class="st1">
		<path d="M120.8,79c-3.8,1.8-7.5,2.3-11,1.5s-6.1-2.9-7.7-6.2c-1.6-3.4-1.7-6.7-0.2-9.9c1.5-3.2,4.3-5.7,8.2-7.6
			c4-1.9,7.8-2.5,11.3-1.7c3.5,0.8,6,2.9,7.7,6.3c1.6,3.3,1.6,6.6,0,9.9C127.4,74.5,124.7,77.1,120.8,79z M119.9,73.7
			c0.7-0.4,1.2-0.9,1.3-1.7c0.1-0.8,0-1.7-0.6-2.8c-1.2-2.5-2.8-4.5-4.7-6c-1.9-1.5-3.6-1.9-4.9-1.3c-0.7,0.3-1.1,0.9-1.3,1.7
			c-0.1,0.8,0,1.7,0.6,2.8c1.2,2.5,2.7,4.5,4.7,6C117,73.9,118.6,74.4,119.9,73.7z"/>
		<path d="M160.9,54.8c0.3,0.7,0.9,1.2,1.7,1.4c0.8,0.3,1.3,0.5,1.4,0.7c0.1,0.2,0.1,0.4,0,0.6c-0.1,0.2-0.2,0.4-0.4,0.5l-12.1,5.8
			c-0.2,0.1-0.4,0.1-0.6,0c-0.2-0.1-0.4-0.2-0.5-0.4c-0.1-0.2,0-0.7,0.4-1.5c0.3-0.8,0.3-1.6,0-2.3l-3.9-8.1c-0.5-1-1.1-1.7-1.8-2.1
			c-0.7-0.4-1.4-0.4-2.1-0.1c-0.9,0.4-1.3,1.6-1.1,3.4c0.2,1.8,0.7,3.7,1.6,5.5l1.9,4c0.3,0.7,0.9,1.2,1.7,1.4
			c0.8,0.3,1.3,0.5,1.4,0.7c0.2,0.5,0.1,0.9-0.4,1.1l-12.2,5.8c-0.2,0.1-0.4,0.1-0.6,0c-0.2-0.1-0.4-0.2-0.5-0.4
			c-0.1-0.2,0-0.7,0.3-1.5c0.3-0.8,0.3-1.6,0-2.3l-5.4-11.3c-0.3-0.7-0.9-1.2-1.8-1.5c-0.9-0.3-1.3-0.6-1.4-0.8
			c-0.2-0.3,0-0.7,0.5-1c1.9-1.2,3.8-2.7,5.7-4.6c2-1.9,3.1-2.9,3.3-3c0.6-0.3,1.2,0.1,1.7,1.2c0.2,0.4,0.5,1,0.8,1.8
			s0.6,1.4,0.8,1.9c-0.1-2.1,0.4-4,1.4-5.8c1-1.7,2.4-3.1,4.4-4c2.3-1.1,4.4-1.2,6.3-0.3c1.9,0.9,3.5,2.7,4.8,5.4L160.9,54.8z"/>
	</g>
	<g class="st1">
		<path d="M178.6,51.3c-3.8,1.8-7.5,2.3-11,1.5s-6.1-2.9-7.7-6.2c-1.6-3.4-1.7-6.7-0.2-9.9c1.5-3.2,4.3-5.7,8.2-7.6
			c4-1.9,7.8-2.5,11.3-1.7c3.5,0.8,6,2.9,7.7,6.3c1.6,3.3,1.6,6.6,0,9.9C185.2,46.9,182.5,49.4,178.6,51.3z M177.7,46.1
			c0.7-0.4,1.2-0.9,1.3-1.7c0.1-0.8,0-1.7-0.6-2.8c-1.2-2.5-2.8-4.5-4.7-6s-3.6-1.9-4.9-1.3c-0.7,0.3-1.1,0.9-1.3,1.7
			c-0.1,0.8,0,1.7,0.6,2.8c1.2,2.5,2.7,4.5,4.7,6C174.7,46.3,176.4,46.7,177.7,46.1z"/>
	</g>
	<g class="st1">
		<path d="M144.7,131.2c0.3,0.5,0.8,0.9,1.7,1.3c0.9,0.3,1.3,0.6,1.4,0.8c0.2,0.5,0.1,0.9-0.4,1.1l-10.2,4.9
			c-0.7,0.3-1.2,0.1-1.4-0.6l-0.8-1.9c-0.4,3-2,5.2-4.8,6.5c-2.8,1.3-5.5,1.4-8.3,0.2c-2.8-1.2-5-3.5-6.6-6.9
			c-1.6-3.4-1.9-6.6-1-9.6c1-3,3-5.2,6.1-6.4c2.4-1,4.6-0.9,6.7,0.2l-3.6-7.5c-0.3-0.7-0.9-1.2-1.8-1.5c-0.9-0.3-1.4-0.6-1.4-0.7
			c-0.1-0.3,0-0.6,0.4-1c1.3-0.9,2.6-2,3.9-3.3c1.4-1.2,2.5-2.2,3.3-3c0.9-0.8,1.4-1.2,1.8-1.4c0.6-0.3,1.2,0.1,1.7,1.2
			c0.2,0.4,0.4,1,0.8,1.7c0.3,0.7,0.6,1.3,0.8,1.8L144.7,131.2z M125.5,131.9c0.9,1.9,1.9,3.3,2.9,4.1s2,1.1,2.8,0.7
			c0.9-0.4,1.3-1.4,1.3-2.8c0-1.4-0.5-3.1-1.5-5.1c-0.9-1.9-1.9-3.3-2.9-4.1c-1-0.8-2-1.1-2.9-0.6c-0.9,0.4-1.3,1.3-1.3,2.8
			C124,128.3,124.5,130,125.5,131.9z"/>
		<path d="M139.6,96.3c0.9-0.4,2-0.5,3.3-0.1c1.3,0.4,2.3,1.3,2.9,2.7c0.7,1.4,0.7,3,0.1,4.8c-0.6,1.8-1.7,3-3.2,3.7
			c-0.8,0.4-1.9,0.3-3.2-0.3c-1.3-0.6-2.2-1.3-2.6-2.1c-0.7-1.5-0.8-3.1-0.4-4.9C137.2,98.2,138.1,97,139.6,96.3z M153.2,111.1
			l6.2,13c0.3,0.7,0.9,1.2,1.7,1.4c0.8,0.3,1.3,0.5,1.4,0.7c0.1,0.2,0.1,0.4,0,0.6c-0.1,0.2-0.2,0.4-0.4,0.5l-12.1,5.8
			c-0.2,0.1-0.4,0.1-0.6,0c-0.2-0.1-0.4-0.2-0.5-0.4c-0.1-0.2,0-0.7,0.4-1.5c0.3-0.8,0.3-1.6,0-2.3l-5.4-11.3
			c-0.3-0.7-0.9-1.2-1.8-1.5c-0.9-0.3-1.4-0.6-1.5-0.8c-0.1-0.3,0-0.6,0.5-1c1.2-0.9,2.5-2,3.9-3.2c1.4-1.2,2.5-2.2,3.3-3
			c0.8-0.8,1.4-1.2,1.8-1.4c0.6-0.3,1.2,0.1,1.7,1.2c0.2,0.4,0.4,0.9,0.7,1.5C152.7,110.2,153,110.7,153.2,111.1z"/>
	</g>
	<g class="st1">
		<path d="M158.2,193.4c0.3,0.7,0.9,1.2,1.7,1.4c0.8,0.3,1.3,0.5,1.4,0.7c0.1,0.2,0.1,0.4,0,0.6c-0.1,0.2-0.2,0.4-0.4,0.5l-12.1,5.8
			c-0.2,0.1-0.4,0.1-0.6,0c-0.2-0.1-0.4-0.2-0.5-0.4c-0.1-0.2,0-0.7,0.4-1.5c0.3-0.8,0.3-1.6,0-2.3l-3.9-8.1c-0.5-1-1.1-1.7-1.8-2.1
			c-0.7-0.4-1.4-0.4-2.1-0.1c-0.9,0.4-1.3,1.6-1.1,3.4c0.2,1.8,0.7,3.7,1.6,5.5l1.9,4c0.3,0.7,0.9,1.2,1.7,1.4
			c0.8,0.3,1.3,0.5,1.4,0.7c0.2,0.5,0.1,0.9-0.4,1.1l-12.2,5.8c-0.2,0.1-0.4,0.1-0.6,0c-0.2-0.1-0.4-0.2-0.5-0.4
			c-0.1-0.2,0-0.7,0.3-1.5c0.3-0.8,0.3-1.6,0-2.3l-5.4-11.3c-0.3-0.7-0.9-1.2-1.8-1.5c-0.9-0.3-1.3-0.6-1.4-0.8
			c-0.2-0.3,0-0.7,0.5-1c1.9-1.2,3.8-2.7,5.7-4.6c2-1.9,3.1-2.9,3.3-3c0.6-0.3,1.2,0.1,1.7,1.2c0.2,0.4,0.5,1,0.8,1.8
			c0.3,0.8,0.6,1.4,0.8,1.9c-0.1-2.1,0.4-4,1.4-5.8c1-1.7,2.4-3.1,4.4-4c2.3-1.1,4.4-1.2,6.3-0.3c1.9,0.9,3.5,2.7,4.8,5.4
			L158.2,193.4z"/>
	</g>
	<g class="st1">
		<path d="M175.9,189.9c-3.8,1.8-7.5,2.3-11,1.5s-6.1-2.9-7.7-6.2c-1.6-3.4-1.7-6.7-0.2-9.9c1.5-3.2,4.3-5.7,8.2-7.6
			c4-1.9,7.8-2.5,11.3-1.7c3.5,0.8,6,2.9,7.7,6.3c1.6,3.3,1.6,6.6,0,9.9C182.6,185.5,179.8,188.1,175.9,189.9z M175,184.7
			c0.7-0.4,1.2-0.9,1.3-1.7c0.1-0.8,0-1.7-0.6-2.8c-1.2-2.5-2.8-4.5-4.7-6s-3.6-1.9-4.9-1.3c-0.7,0.3-1.1,0.9-1.3,1.7
			c-0.1,0.8,0,1.7,0.6,2.8c1.2,2.5,2.7,4.5,4.7,6C172.1,184.9,173.7,185.3,175,184.7z"/>
		<path d="M181,145.1c0.9-0.4,2-0.5,3.3-0.1c1.3,0.4,2.3,1.3,2.9,2.7c0.7,1.4,0.7,3,0.1,4.8c-0.6,1.8-1.7,3-3.2,3.7
			c-0.8,0.4-1.9,0.3-3.2-0.3c-1.3-0.6-2.2-1.3-2.6-2.1c-0.7-1.5-0.8-3.1-0.4-4.9C178.6,147.1,179.6,145.8,181,145.1z M194.6,160
			l6.2,13c0.3,0.7,0.9,1.2,1.7,1.4c0.8,0.3,1.3,0.5,1.4,0.7c0.1,0.2,0.1,0.4,0,0.6c-0.1,0.2-0.2,0.4-0.4,0.5l-12.1,5.8
			c-0.2,0.1-0.4,0.1-0.6,0c-0.2-0.1-0.4-0.2-0.5-0.4c-0.1-0.2,0-0.7,0.4-1.5s0.3-1.6,0-2.3l-5.4-11.3c-0.3-0.7-0.9-1.2-1.8-1.5
			c-0.9-0.3-1.4-0.6-1.5-0.8c-0.1-0.3,0-0.6,0.5-1c1.2-0.9,2.5-2,3.9-3.2c1.4-1.2,2.5-2.2,3.3-3c0.8-0.8,1.4-1.2,1.8-1.4
			c0.6-0.3,1.2,0.1,1.7,1.2c0.2,0.4,0.4,0.9,0.7,1.5C194.2,159.1,194.4,159.6,194.6,160z"/>
	</g>
</g>
</svg>
