<?xml version="1.0" encoding="UTF-8"?><svg id="Layer_2" xmlns="http://www.w3.org/2000/svg" viewBox="0 0 369.31 362.61"><defs><style>.cls-1{fill:#fcb614;stroke:#000;stroke-width:2px;}.cls-2{fill:#000;stroke-width:0px;}</style></defs><g id="Layer_1-2"><path class="cls-1" d="M1.59,258.81l-.52.39.09.65c1.16,8.13,2.6,11.96,6.11,21.35.42,1.12.87,2.33,1.35,3.63,6.21,16.71,15.81,36.48,23.86,53.06,4.1,8.44,7.79,16.04,10.43,22l.54,1.22,1.1-.75c14.43-9.89,82.45-46.09,101.68-53.24,6.59-2.45,15.68-4.74,26.29-7.41,1.95-.49,3.96-.99,6.01-1.52,13.13-3.34,28.02-7.32,42.81-12.82,10.46-3.89,122-61.85,131.97-66.58,4.65-2.21,9.28-4.4,13.93-6.5l.87-.39-.26-.92c-8.52-30.49-25.29-84.59-34.13-103.55l-.42-.9-.94.31c-10.55,3.51-121.37,61.09-131.49,65.85l-.33.16c-10.04,4.73-20.91,9.84-34.65,14.95-7.2,2.68-15.57,5.01-24.76,7.51-1.02.28-2.05.56-3.09.84-8.31,2.25-17.22,4.66-26.42,7.56-20.7,6.54-89.51,39.56-110.02,55.1Z"/><path class="cls-1" d="M20.21,166.42l-.4.3.07.5c.89,6.24,1.99,9.18,4.69,16.38.32.86.67,1.79,1.04,2.78,4.76,12.82,12.13,27.99,18.31,40.71,3.14,6.47,5.98,12.31,8.01,16.88l.41.94.84-.58c11.07-7.59,77.15-35.85,91.9-41.34,5.05-1.88,12.03-3.63,20.17-5.68,1.5-.38,3.04-.76,4.61-1.16,10.08-2.56,21.5-5.62,32.85-9.83,8.02-2.98,35.1-16.74,42.74-20.36,3.57-1.69,23.48-10.49,27.04-12.1l.67-.3-.2-.7c-6.54-23.39-19.4-64.91-26.19-79.46l-.32-.69-.72.24c-8.09,2.69-50.97,23.26-58.74,26.92l-.26.12c-7.7,3.63-16.04,7.55-26.58,11.47-5.52,2.05-11.95,3.85-19,5.76-.78.21-1.57.43-2.37.64-6.38,1.72-13.21,3.57-20.27,5.8-15.89,5.02-82.57,30.84-98.3,42.76Z"/><path class="cls-1" d="M11.06,85.65l-.4.38.11.54c1.41,6.73,2.63,9.98,5.61,17.96.36.96.74,1.98,1.15,3.09,5.28,14.21,12.92,31.21,19.34,45.48,3.27,7.27,6.22,13.83,8.37,18.95l.53,1.26,1.04-.88c8.1-6.86,57.16-31.1,68.36-35.26,3.82-1.42,10.11-2.66,17.51-4.12,1.36-.27,2.76-.54,4.19-.83,9.11-1.82,62.21-25.11,70.95-28.36,6.18-2.3,12.05-5.37,17.83-8.39,2.68-1.4,5.35-2.8,8.02-4.1l.77-.38-.25-.82c-7.92-25.76-24.97-71.89-32.07-88.14l-.36-.82-.86.27c-6.29,1.98-54.63,25.86-60.48,28.89l-.19.1c-5.82,3.01-12.09,6.25-20.13,9.24-4.19,1.56-9.15,2.75-14.63,4-.61.14-1.22.28-1.84.42-4.96,1.13-10.29,2.34-15.75,3.93-12.32,3.59-65.35,26.52-76.8,37.57Z"/><path class="cls-2" d="M75.77,107.95c1.2,3.1,1.32,5.88.38,8.34-.95,2.46-2.66,4.17-5.14,5.12-2.79,1.08-5.29.68-7.51-1.18l.56,2.7c.11.61-.19.97-.9,1.08l-10.23,1.33c-.47.05-.72-.18-.75-.68,0-.19.25-.59.78-1.2.53-.61.77-1.17.74-1.67l-7.34-19c-.24-.62-.73-1.09-1.47-1.42-.74-.33-1.15-.58-1.21-.75-.11-.28.04-.57.45-.85,1.17-.74,2.39-1.6,3.65-2.58,1.26-.97,2.29-1.76,3.07-2.38.79-.61,1.33-.98,1.64-1.1.56-.22,1.05.19,1.45,1.24.13.34.31.84.54,1.52.23.67.42,1.21.57,1.6l3.35,8.43c.45-2.44,1.94-4.16,4.48-5.14,2.57-.99,5.06-.9,7.49.27,2.43,1.17,4.23,3.28,5.41,6.32ZM66.56,111.8c-.66-1.72-1.42-3-2.26-3.84-.84-.84-1.66-1.11-2.45-.8-.73.28-1.14.98-1.23,2.1-.09,1.12.19,2.51.83,4.18.66,1.72,1.42,3,2.28,3.83.86.83,1.68,1.1,2.47.8.73-.28,1.14-.98,1.21-2.1.07-1.11-.21-2.5-.86-4.17Z"/><path class="cls-2" d="M87.38,104.15c1.09,1.14,2.33,1.88,3.73,2.23,1.4.35,2.82.25,4.26-.31,1.04-.4,1.99-1,2.85-1.8.86-.8,1.36-1.67,1.52-2.61.05-.28.16-.45.33-.52.14-.05.29-.04.46.04.16.08.27.2.32.34.09.23.13.62.14,1.19s-.1,1.3-.33,2.22c-.23.92-.59,1.83-1.08,2.75-.49.92-1.28,1.85-2.38,2.79-1.09.94-2.4,1.71-3.93,2.3-3.24,1.25-6.35,1.41-9.33.47-2.97-.94-5.05-2.95-6.24-6.02-1.11-2.88-1.01-5.67.29-8.38s3.77-4.76,7.41-6.17c2.79-1.08,5.23-1.38,7.31-.9,2.08.48,3.43,1.5,4.04,3.08.38.99.39,2,.03,3.03-.36,1.03-.93,1.92-1.69,2.67-.76.75-1.53,1.39-2.3,1.91-.77.52-1.41.87-1.93,1.04l-3.49.67ZM86.65,95.2c-.85.33-1.4,1.06-1.65,2.2-.26,1.14-.19,2.21.2,3.23.17.45.31.77.42.96,2.22-.96,3.41-2.19,3.57-3.71.15-.87-.04-1.6-.58-2.21-.54-.6-1.19-.75-1.95-.46Z"/><path class="cls-2" d="M105.93,78.41l7.91,20.48c.35.9.76,1.59,1.23,2.05.47.47.89.78,1.26.95.37.16.59.33.66.5.11.28-.08.64-.58,1.08-.5.44-1.14.81-1.93,1.11-2.06.79-4.1.91-6.14.35-2.03-.56-3.41-1.78-4.14-3.67l-7-18.11c-.24-.62-.73-1.09-1.47-1.42-.74-.33-1.15-.58-1.21-.75-.11-.28.04-.57.45-.85,1.17-.74,2.39-1.6,3.65-2.58,1.26-.97,2.29-1.77,3.09-2.39.8-.62,1.35-.98,1.66-1.1.56-.22,1.05.2,1.45,1.24.13.34.31.84.54,1.52.23.67.42,1.21.57,1.6Z"/><path class="cls-2" d="M112.6,69.37c.85-.33,1.82-.28,2.92.14,1.1.42,1.9,1.26,2.39,2.53.5,1.3.42,2.71-.24,4.23-.66,1.52-1.67,2.54-3.02,3.06-.73.28-1.66.11-2.77-.51-1.11-.62-1.81-1.3-2.1-2.03-.52-1.35-.52-2.8.03-4.34.54-1.54,1.47-2.56,2.8-3.07ZM123.47,83.3l4.56,11.8c.24.62.71,1.08,1.43,1.37.71.29,1.1.52,1.17.69.06.17.06.35-.01.54-.07.19-.19.32-.36.38l-11,4.25c-.17.07-.35.05-.55-.03-.2-.09-.32-.21-.39-.38-.06-.17.07-.6.42-1.3.34-.7.4-1.36.16-1.98l-3.97-10.28c-.24-.62-.74-1.09-1.5-1.42-.76-.32-1.17-.58-1.25-.78-.11-.28.06-.56.51-.83,1.14-.73,2.35-1.59,3.63-2.57,1.27-.98,2.3-1.77,3.09-2.38.79-.61,1.33-.98,1.64-1.1.56-.22,1.04.18,1.43,1.2.13.34.29.8.49,1.39.2.59.36,1.07.5,1.43Z"/><path class="cls-2" d="M137.98,84.6c1.09,1.13,2.33,1.88,3.73,2.23,1.4.35,2.82.25,4.26-.31,1.04-.4,1.99-1,2.85-1.81s1.36-1.67,1.52-2.61c.05-.28.17-.45.34-.52.14-.05.29-.04.45.04s.27.2.32.34c.09.23.13.62.14,1.18,0,.56-.1,1.3-.33,2.22-.23.92-.59,1.83-1.08,2.75-.49.92-1.28,1.85-2.37,2.79-1.1.94-2.4,1.71-3.93,2.3-3.24,1.25-6.35,1.41-9.32.47-2.97-.94-5.05-2.95-6.24-6.02-1.11-2.88-1.01-5.67.29-8.38,1.3-2.71,3.78-4.76,7.41-6.17,2.79-1.08,5.23-1.38,7.31-.9s3.43,1.5,4.04,3.08c.38.99.39,2,.03,3.03-.36,1.03-.93,1.92-1.69,2.67-.77.75-1.53,1.39-2.3,1.91-.77.52-1.41.87-1.93,1.04l-3.49.67ZM137.24,75.65c-.85.33-1.4,1.06-1.66,2.19-.26,1.14-.19,2.21.2,3.23.17.45.31.77.42.96,2.22-.96,3.41-2.19,3.57-3.71.15-.87-.04-1.6-.58-2.21-.54-.6-1.19-.76-1.95-.46Z"/><path class="cls-2" d="M165.49,74.9c0-.07.05-1.56.12-4.47.07-2.91.03-4.63-.14-5.15-.16-.49-.55-.85-1.17-1.08-.62-.23-.97-.43-1.03-.6-.05-.14-.04-.29.04-.45.08-.16.19-.27.34-.33l6.43-2.48c.4-.15.67-.03.82.36.09.23-.07.67-.46,1.32-.4.66-.6,1.15-.6,1.47l-.67,16.25c-.07,2.33-.45,3.71-1.13,4.13-.42.16-1,.41-1.73.74s-1.68.44-2.84.32c-1.16-.12-2.14-.56-2.92-1.33l-11.99-11.9c-.21-.21-.68-.43-1.39-.65-.72-.22-1.13-.46-1.23-.72-.15-.39-.05-.66.32-.8l12.4-4.79c.39-.15.67-.03.82.36.06.17-.04.54-.33,1.1-.28.56-.32,1.08-.11,1.55.14.37.69,1.07,1.64,2.11.95,1.04,1.96,2.1,3.03,3.18s1.66,1.69,1.78,1.84Z"/><path class="cls-2" d="M183.59,66.99c1.09,1.14,2.33,1.88,3.73,2.23,1.4.35,2.82.25,4.26-.31,1.04-.4,1.99-1.01,2.85-1.81.86-.8,1.36-1.67,1.52-2.61.05-.28.17-.45.33-.52.14-.05.29-.04.46.04.16.08.27.2.32.34.09.23.13.62.14,1.19,0,.56-.1,1.3-.33,2.22-.23.92-.59,1.83-1.08,2.75-.49.92-1.28,1.85-2.37,2.79-1.09.94-2.4,1.71-3.93,2.3-3.24,1.25-6.35,1.41-9.33.47s-5.05-2.95-6.24-6.02c-1.11-2.88-1.02-5.67.29-8.38,1.3-2.71,3.77-4.76,7.41-6.17,2.79-1.08,5.23-1.38,7.31-.9,2.08.48,3.42,1.5,4.04,3.08.38.99.39,2,.03,3.03-.36,1.03-.93,1.92-1.69,2.67-.76.75-1.53,1.39-2.3,1.91-.77.52-1.41.87-1.93,1.04l-3.49.67ZM182.85,58.03c-.84.33-1.4,1.06-1.65,2.2-.26,1.14-.19,2.21.2,3.23.17.45.31.77.42.96,2.22-.96,3.42-2.19,3.57-3.71.15-.87-.04-1.6-.58-2.21-.54-.6-1.19-.75-1.95-.46Z"/><path class="cls-2" d="M82.76,188.36c0-.23.05-1.11.12-2.65.07-1.54.11-2.94.12-4.23,0-1.28-.05-2.21-.17-2.78-.16-.49-.55-.85-1.17-1.08s-.97-.43-1.03-.6c-.14-.37-.02-.63.38-.78l6.43-2.48c.14-.05.3-.05.47.01.17.06.29.18.35.35.09.23-.07.67-.46,1.32-.4.66-.59,1.15-.6,1.47l-.71,16.27c-.1,2.34-.48,3.72-1.13,4.13-.42.16-1.01.41-1.75.75-.75.34-1.7.45-2.86.35-1.16-.1-2.13-.55-2.93-1.35l-6.13-6.04-.36,8.01c-.07,2.33-.45,3.71-1.13,4.13-.15.19-.54.38-1.14.56s-1.25.35-1.92.5-1.42.11-2.25-.1c-.83-.21-1.55-.62-2.18-1.23l-12.03-11.88c-.21-.21-.68-.42-1.42-.64-.73-.22-1.15-.46-1.25-.71-.15-.39-.03-.67.36-.82l12.4-4.79c.39-.15.67-.03.82.36.07.17-.04.54-.33,1.1-.29.56-.32,1.08-.11,1.55.29.5.86,1.22,1.71,2.16.85.94,1.83,1.96,2.94,3.07,1.11,1.11,1.73,1.74,1.85,1.89,0-.33.04-1.33.1-3.03.06-1.69.09-3.01.08-3.95l-2.05-2.03c-.21-.21-.68-.43-1.42-.65-.73-.22-1.15-.46-1.25-.71-.07-.17-.06-.33.03-.5.08-.16.19-.27.34-.32l1.95-.75.13-.05,6.73-2.6.13-.05,3.77-1.45c.2-.08.37-.07.52.02.15.09.22.21.22.38.05.14-.1.51-.45,1.1-.36.59-.42,1.14-.2,1.63.29.5.88,1.24,1.78,2.21.89.97,1.84,1.97,2.86,3,1.01,1.04,1.63,1.67,1.85,1.91Z"/><path class="cls-2" d="M95.81,189.05l-8.03-20.77c-.24-.62-.73-1.09-1.47-1.42-.74-.33-1.15-.58-1.21-.75-.11-.28.04-.57.45-.85,1.17-.74,2.39-1.6,3.65-2.58,1.26-.97,2.29-1.77,3.09-2.38.8-.62,1.35-.98,1.66-1.1.56-.22,1.05.2,1.45,1.24.13.34.32.84.56,1.51.24.67.44,1.2.59,1.59l4.15,10.75c0-4.02,1.79-6.72,5.38-8.11,4.57-1.77,7.85-.08,9.83,5.05l3.38,8.76c.24.62.72,1.08,1.43,1.37.71.29,1.1.52,1.17.69.17.45.04.76-.42.94l-11,4.25c-.45.17-.76.04-.94-.42-.06-.17.07-.6.42-1.3.34-.7.4-1.36.16-1.98l-2.76-7.15c-.38-.99-.86-1.71-1.42-2.17-.57-.46-1.12-.59-1.66-.38-.79.31-1.26,1.17-1.41,2.59s-.01,2.92.41,4.51l1.77,4.57c.24.62.71,1.08,1.43,1.37.71.29,1.1.52,1.17.69.06.17.06.35-.01.54s-.21.32-.41.4l-11,4.25c-.45.17-.76.04-.94-.42-.07-.17.07-.6.4-1.3.33-.69.38-1.35.14-1.97Z"/><path class="cls-2" d="M148.71,170.8c-1.16,1.78-2.7,3.04-4.62,3.78-1.72.67-3.47.8-5.24.42-1.77-.39-3.23-1.28-4.39-2.68-.02-.06-.05-.08-.07-.07.06,1.76-.42,3.41-1.44,4.96-1.02,1.55-2.3,2.61-3.82,3.2-1.64.63-3.2.56-4.68-.21-1.48-.77-2.59-2.1-3.32-3.99-.91-2.37-.83-4.44.25-6.22,1.08-1.78,2.63-3.06,4.67-3.84,1.41-.54,2.73-.74,3.95-.6-.16-.23-.34-.53-.54-.91-.52-.93-1.14-1.59-1.86-1.98-.72-.39-1.51-.4-2.37-.03-.76.29-1.67,1.34-2.72,3.14-1.14,2.16-2.09,3.39-2.86,3.68-.9.35-1.74-.46-2.5-2.44-1.11-2.88-1.07-4.54.11-5,.34-.13,1.03-.19,2.07-.17,1.04.02,1.75-.09,2.11-.33.77-.62,1.91-1.36,3.42-2.22,1.51-.86,2.79-1.49,3.84-1.9,1.58-.61,3.07-.8,4.47-.58,1.4.22,2.6.75,3.6,1.58,1,.83,1.93,1.81,2.79,2.93s1.63,2.26,2.31,3.41c.69,1.14,1.34,2.17,1.97,3.08.63.91,1.27,1.54,1.93,1.91.66.36,1.32.32,1.99-.14.38-.28.7-.24.95.12.25.36.26.73.02,1.11ZM131.26,167.67c-.41-.29-.92-.32-1.54-.08-.62.24-1.07.7-1.36,1.38-.29.68-.25,1.48.11,2.41.28.73.66,1.25,1.13,1.55.47.3.97.32,1.48.06.7-.37,1.06-1.04,1.07-2.02.01-.98-.29-2.08-.89-3.3Z"/><path class="cls-2" d="M158.28,169.15c-2.2.85-4.25.84-6.14-.04s-3.32-2.56-4.29-5.07l-3.32-8.59c-.31-.79-1.12-.93-2.45-.42-.11.04-.29.13-.53.26-.24.13-.42.21-.54.23-.12.03-.26,0-.41-.06-.16-.07-.29-.24-.4-.53-.13-.34-.21-.58-.24-.74-.03-.15,0-.32.1-.5.09-.18.28-.36.57-.54.88-.5,1.74-1.09,2.59-1.78.85-.69,1.71-1.49,2.56-2.42.86-.93,1.46-1.96,1.8-3.08.34-1.12.33-2.21-.04-3.26-.24-.62-.18-1,.19-1.14.54-.21.92-.24,1.16-.08.24.15.49.58.76,1.29.89,2.31,1.53,3.92,1.91,4.81.29.67,1.37.64,3.23-.08.11-.04.23-.1.35-.16.12-.06.22-.11.29-.14.07-.03.15-.05.24-.07s.17,0,.23.03c.06.04.13.11.2.21.07.1.14.24.21.41.43,1.1-.11,1.9-1.59,2.41-.11.04-.37.13-.78.25-.41.12-.65.2-.73.24l4.64,12.02c.51,1.33,1.19,1.82,2.04,1.5.96-.37,1.41-1.13,1.36-2.28.01-.13.03-.32.03-.54,0-.23.01-.4.02-.52,0-.11.02-.24.05-.38s.06-.25.11-.34c.05-.08.12-.14.2-.17.48-.18.83.02,1.06.61.63,1.64.58,3.29-.15,4.95-.74,1.66-2.16,2.9-4.28,3.72Z"/><path class="cls-2" d="M192.61,155.94c-3.44,1.33-6.69,1.51-9.76.54-3.07-.97-5.17-2.95-6.33-5.94-1.2-3.1-1.03-5.99.52-8.66s4.12-4.71,7.73-6.1c3.67-1.42,7-1.67,9.99-.75,3,.92,5.09,2.93,6.29,6.03,1.17,3.02.93,5.91-.7,8.68-1.64,2.77-4.22,4.84-7.74,6.2ZM192.13,151.31c.68-.26,1.1-.73,1.28-1.42.17-.68.08-1.5-.29-2.46-.87-2.25-2.11-4.1-3.7-5.55-1.59-1.44-2.98-1.93-4.17-1.48-.65.25-1.06.72-1.23,1.4-.17.68-.08,1.5.29,2.46.87,2.26,2.1,4.11,3.68,5.56,1.58,1.45,2.96,1.94,4.15,1.48Z"/><path class="cls-2" d="M219.51,140.49c0,3.11-1.25,5.15-3.76,6.12-2.45.95-4.75,1.01-6.88.18-2.14-.83-3.64-2.37-4.51-4.63l-2.32-6.01c-.23-.59-.71-1.05-1.44-1.39-.73-.33-1.13-.6-1.21-.8-.11-.28.04-.57.45-.85,1.17-.74,2.39-1.61,3.67-2.58,1.28-.98,2.3-1.77,3.09-2.38s1.33-.98,1.64-1.1c.56-.22,1.05.2,1.45,1.24.1.25.24.69.44,1.32.19.62.38,1.13.56,1.51l3.02,7.83c.38.99.85,1.71,1.4,2.18.55.47,1.11.59,1.68.37.71-.27,1.15-1.12,1.33-2.53.18-1.42-.07-3.01-.76-4.79l-1.32-3.43c-.23-.59-.71-1.05-1.44-1.39s-1.13-.6-1.21-.8c-.1-.25.06-.52.46-.81,1.17-.74,2.39-1.6,3.65-2.58,1.26-.97,2.28-1.76,3.07-2.38.79-.61,1.33-.98,1.64-1.1.56-.22,1.04.18,1.43,1.2.13.34.29.81.47,1.4.18.59.34,1.07.49,1.44l3.9,9.97c.35.9.77,1.58,1.25,2.04.49.46.91.78,1.26.95.36.17.57.34.63.51.11.28-.09.64-.58,1.08-.5.44-1.14.8-1.93,1.11-2.12.82-3.84,1.23-5.18,1.25-1.34.02-2.55-.33-3.64-1.05l-.81-1.1Z"/><path class="cls-2" d="M244.09,121.8c-.4.15-.87-.14-1.41-.89-.55-.74-1.09-1.01-1.62-.81-.85.33-1.31,1.25-1.39,2.75-.08,1.51.14,2.94.66,4.29l2.03,5.25c.21.63.68,1.1,1.42,1.4.73.3,1.13.54,1.2.71.06.17.06.35-.01.54-.07.19-.21.32-.4.4l-10.96,4.23c-.2.08-.39.07-.57-.02-.18-.09-.3-.22-.37-.39-.06-.17.06-.61.39-1.32.33-.71.37-1.37.13-1.99l-3.97-10.28c-.23-.59-.71-1.06-1.44-1.39-.73-.33-1.13-.6-1.21-.8-.1-.25.06-.52.46-.81,1.14-.73,2.35-1.59,3.63-2.57,1.27-.98,2.3-1.77,3.09-2.38s1.33-.98,1.64-1.1c.56-.22,1.02.12,1.37,1.03.1.25.29.79.57,1.6.28.82.48,1.38.6,1.69.13-1.35.57-2.74,1.33-4.18.76-1.44,1.67-2.47,2.73-3.07.8-.44,1.54-.53,2.23-.28s1.18.79,1.5,1.61c.56,1.44.68,2.83.38,4.18s-.96,2.22-1.98,2.61Z"/><path class="cls-2" d="M38.94,292.19c-1.32-2.99-1.23-5.84.27-8.54,1.5-2.7,3.94-4.71,7.33-6.02,1.5-.58,3-.96,4.52-1.14,1.52-.18,2.91-.06,4.18.38,1.27.44,2.11,1.19,2.53,2.26.46,1.18.32,2.25-.42,3.2-.74.95-1.62,1.62-2.67,2.03-.79.3-1.59.39-2.41.25-.82-.14-1.32-.45-1.5-.93-.21-.54-.09-1.13.35-1.79.44-.66.58-1.21.4-1.66-.15-.46-.45-.77-.91-.91-.46-.14-.99-.1-1.58.12-1.38.53-2.23,1.48-2.55,2.83-.32,1.36-.15,2.68.52,3.98.9,1.66,2.17,2.79,3.81,3.37,1.64.58,3.37.52,5.2-.19,1.24-.48,2.27-1.16,3.08-2.04.81-.88,1.32-1.8,1.54-2.76.02-.11.05-.25.07-.44.02-.19.06-.31.1-.38s.09-.11.14-.13c.14-.05.29-.04.45.04.16.08.27.2.32.34.98,2.54.86,5.13-.37,7.78-1.23,2.65-3.5,4.61-6.8,5.88-3.1,1.2-6.12,1.37-9.06.51-2.94-.86-5.12-2.88-6.54-6.05Z"/><path class="cls-2" d="M79.68,283.01c0,3.11-1.25,5.15-3.76,6.12-2.45.95-4.75,1.01-6.88.18-2.14-.83-3.64-2.37-4.51-4.63l-2.32-6.01c-.23-.59-.71-1.05-1.44-1.39-.73-.33-1.13-.6-1.21-.8-.11-.28.04-.57.45-.85,1.17-.74,2.39-1.61,3.67-2.58,1.28-.98,2.31-1.77,3.09-2.38.79-.61,1.33-.98,1.64-1.1.56-.22,1.05.2,1.45,1.24.1.25.24.69.43,1.32.19.62.38,1.13.56,1.51l3.02,7.83c.38.99.85,1.71,1.4,2.18.55.47,1.11.59,1.68.37.71-.27,1.15-1.12,1.33-2.53s-.07-3.01-.76-4.79l-1.32-3.43c-.23-.59-.71-1.05-1.44-1.39-.73-.33-1.13-.6-1.21-.8-.1-.25.06-.52.46-.81,1.17-.74,2.39-1.6,3.65-2.58,1.26-.97,2.28-1.76,3.07-2.38.79-.61,1.33-.98,1.64-1.1.56-.22,1.04.18,1.43,1.2.13.34.29.81.47,1.4.18.6.34,1.08.48,1.44l3.9,9.97c.35.9.77,1.58,1.25,2.04.49.46.91.78,1.26.95.36.17.57.34.63.51.11.28-.08.64-.58,1.08-.5.43-1.14.8-1.93,1.11-2.12.82-3.84,1.23-5.18,1.25-1.34.01-2.55-.33-3.64-1.05l-.81-1.1Z"/><path class="cls-2" d="M102.58,274.31c-.27-.7-.89-1.18-1.86-1.42-.97-.24-2.07-.37-3.31-.38-1.24,0-2.49-.06-3.75-.16-1.27-.09-2.46-.46-3.59-1.12-1.13-.65-1.94-1.62-2.44-2.92-.54-1.41-.51-2.77.1-4.07.61-1.31,1.53-2.4,2.75-3.27,1.22-.88,2.64-1.63,4.28-2.26,2.2-.85,4.16-1.16,5.88-.94,1.72.23,2.82.98,3.28,2.26.35.9.02,1.76-.98,2.57-1,.81-2.04,1.32-3.12,1.55-.96.21-1.52.1-1.68-.32-.08-.2,0-.49.25-.87.24-.38.32-.69.23-.91-.3-.79-1.05-.96-2.23-.5-1.44.56-1.95,1.37-1.54,2.44.28.73.89,1.18,1.81,1.34.92.16,1.97.18,3.15.04,1.18-.13,2.39-.21,3.63-.23,1.24-.02,2.4.26,3.49.84,1.08.59,1.89,1.56,2.41,2.91.5,1.3.6,2.56.3,3.8-.3,1.23-.89,2.3-1.78,3.19-.89.89-1.81,1.66-2.79,2.29-.97.63-1.96,1.15-2.98,1.54-2.54.98-4.76,1.33-6.66,1.07-1.9-.27-3.14-1.09-3.7-2.46-.32-.82-.24-1.58.22-2.27.46-.7,1.21-1.26,2.24-1.69,1.06-.44,2.05-.64,2.96-.58.91.05,1.45.28,1.6.67.06.17,0,.45-.21.84-.21.39-.25.7-.12.95.14.37.44.58.91.65s1-.02,1.62-.26c1.46-.57,2.01-1.33,1.64-2.29Z"/><path class="cls-2" d="M123.04,271.27c-2.2.85-4.25.84-6.14-.04s-3.32-2.56-4.29-5.08l-3.32-8.59c-.3-.79-1.12-.93-2.45-.42-.11.04-.29.13-.53.26-.24.13-.42.2-.54.23-.12.03-.26,0-.41-.06-.16-.07-.29-.25-.4-.53-.13-.34-.21-.58-.23-.74-.03-.15,0-.32.1-.5.09-.18.28-.36.57-.54.88-.5,1.74-1.09,2.59-1.78.85-.69,1.71-1.49,2.56-2.42.86-.93,1.46-1.96,1.8-3.08.34-1.12.33-2.21-.04-3.26-.24-.62-.18-1,.19-1.14.54-.21.92-.23,1.16-.08.24.15.49.58.76,1.29.89,2.31,1.53,3.92,1.91,4.81.29.67,1.37.64,3.23-.08.11-.04.23-.1.35-.16.12-.06.22-.11.29-.14.07-.03.15-.05.24-.07.09-.02.17,0,.23.03.06.04.13.11.2.21.07.1.14.24.21.41.43,1.1-.11,1.91-1.59,2.42-.11.04-.37.13-.78.25-.41.12-.65.2-.73.24l4.64,12.02c.51,1.33,1.19,1.82,2.04,1.5.96-.37,1.41-1.13,1.36-2.28.01-.13.03-.32.03-.55s.01-.4.02-.52c0-.12.02-.24.05-.38.03-.14.07-.25.11-.34.05-.08.12-.14.2-.17.48-.19.83.02,1.06.61.63,1.64.58,3.29-.16,4.95-.74,1.66-2.16,2.9-4.28,3.72Z"/><path class="cls-2" d="M143.11,263.56c-3.44,1.33-6.69,1.51-9.76.54-3.07-.97-5.17-2.95-6.33-5.94-1.2-3.1-1.03-5.99.52-8.66,1.54-2.67,4.12-4.71,7.73-6.1,3.67-1.42,7-1.67,9.99-.75,3,.92,5.09,2.93,6.29,6.03,1.17,3.02.93,5.91-.71,8.69-1.64,2.77-4.22,4.84-7.74,6.2ZM142.63,258.93c.68-.26,1.1-.73,1.28-1.42.17-.68.07-1.5-.3-2.46-.87-2.25-2.1-4.1-3.7-5.55-1.6-1.44-2.98-1.94-4.17-1.48-.65.25-1.06.72-1.23,1.4-.17.68-.08,1.5.29,2.46.87,2.26,2.1,4.11,3.68,5.56,1.58,1.45,2.96,1.94,4.15,1.49Z"/><path class="cls-2" d="M178.79,241.66l1.29,3.34c.24.62.71,1.08,1.43,1.37s1.1.52,1.17.69c.17.45.04.76-.42.94l-11,4.25c-.45.17-.76.04-.94-.42-.06-.17.08-.6.42-1.3.34-.7.4-1.36.16-1.98l-2.76-7.15c-.37-.96-.83-1.67-1.38-2.14-.55-.47-1.11-.59-1.68-.37-.9.35-1.41,1.4-1.53,3.16-.11,1.76.15,3.46.78,5.1l1.32,3.43c.24.62.72,1.08,1.43,1.37s1.1.52,1.17.69c.17.45.04.76-.42.94l-11,4.25c-.17.07-.34.06-.52-.02-.17-.08-.3-.22-.38-.41-.07-.17.07-.6.4-1.3.33-.7.38-1.35.14-1.97l-3.97-10.28c-.24-.62-.72-1.1-1.45-1.43-.73-.33-1.13-.6-1.21-.8-.1-.25.06-.52.46-.81.97-.67,2.11-1.5,3.42-2.49s2.37-1.8,3.2-2.43c.83-.63,1.41-1.01,1.75-1.14.56-.22,1.04.18,1.44,1.2.14.37.33.91.58,1.62.24.72.44,1.27.59,1.67.09-1.85.64-3.5,1.64-4.94,1-1.44,2.4-2.51,4.21-3.21,3.55-1.37,6.34-.44,8.37,2.79.13-1.93.57-3.58,1.33-4.94.75-1.36,2.1-2.42,4.05-3.17,2.25-.87,4.26-.87,6.01.01,1.75.88,3.09,2.53,4.03,4.96l3.38,8.76c.24.62.71,1.08,1.43,1.37.71.29,1.1.52,1.17.69.08.2.08.38,0,.56s-.2.3-.37.36l-11,4.25c-.45.17-.76.04-.94-.42-.07-.17.07-.6.4-1.3.33-.7.38-1.35.14-1.97l-2.73-7.07c-.38-.99-.85-1.71-1.4-2.18s-1.11-.59-1.68-.37c-.88.34-1.34,1.38-1.4,3.12-.06,1.74.24,3.44.88,5.11Z"/><path class="cls-2" d="M203.65,229.24c1.09,1.14,2.33,1.88,3.73,2.23,1.4.35,2.82.25,4.26-.31,1.04-.4,1.99-1,2.85-1.81.86-.8,1.36-1.67,1.52-2.61.05-.28.17-.45.33-.52.14-.05.29-.04.45.04.16.08.27.2.32.34.09.23.13.62.14,1.19,0,.56-.1,1.3-.33,2.22-.23.92-.59,1.83-1.08,2.75-.49.92-1.28,1.85-2.37,2.79s-2.4,1.71-3.93,2.3c-3.24,1.25-6.35,1.41-9.32.46-2.97-.94-5.05-2.95-6.24-6.02-1.11-2.88-1.02-5.67.29-8.38,1.3-2.71,3.77-4.76,7.41-6.17,2.79-1.08,5.23-1.38,7.31-.9,2.08.48,3.42,1.5,4.04,3.08.38.99.39,2,.03,3.03-.36,1.03-.93,1.92-1.69,2.67-.76.75-1.53,1.39-2.3,1.91-.77.52-1.41.87-1.93,1.04l-3.49.67ZM202.92,220.28c-.84.33-1.4,1.06-1.66,2.2-.26,1.14-.19,2.21.2,3.23.17.45.31.77.42.96,2.22-.96,3.42-2.19,3.57-3.71.15-.87-.04-1.6-.58-2.21-.54-.6-1.19-.75-1.95-.46Z"/><path class="cls-2" d="M232.03,214.97c-.39.15-.87-.14-1.41-.89-.55-.75-1.09-1.01-1.62-.81-.85.33-1.31,1.25-1.39,2.75-.08,1.51.14,2.94.66,4.29l2.03,5.25c.21.63.68,1.1,1.42,1.4.73.3,1.13.54,1.2.71.07.17.06.35,0,.54-.07.19-.21.32-.4.4l-10.96,4.23c-.2.08-.39.07-.57-.02-.18-.09-.31-.22-.37-.39-.07-.17.06-.61.39-1.32.33-.71.37-1.37.13-2l-3.97-10.28c-.23-.59-.71-1.06-1.44-1.39-.73-.33-1.13-.6-1.21-.8-.1-.25.06-.52.46-.81,1.14-.73,2.35-1.59,3.63-2.57,1.28-.98,2.31-1.77,3.09-2.39.78-.61,1.33-.98,1.64-1.1.56-.22,1.02.12,1.37,1.03.1.25.29.79.57,1.6.28.82.48,1.38.6,1.69.13-1.35.57-2.74,1.33-4.18.76-1.44,1.66-2.47,2.73-3.07.8-.44,1.54-.53,2.23-.28.68.25,1.18.79,1.5,1.61.56,1.44.68,2.83.38,4.18-.3,1.35-.96,2.22-1.98,2.61Z"/><path class="cls-2" d="M251.16,216.91c-.27-.7-.89-1.18-1.86-1.42-.97-.24-2.07-.37-3.31-.38-1.24,0-2.49-.06-3.75-.15-1.27-.09-2.46-.46-3.59-1.12-1.13-.65-1.94-1.62-2.44-2.92-.54-1.41-.51-2.77.1-4.07.61-1.31,1.53-2.4,2.75-3.27,1.22-.88,2.64-1.63,4.28-2.26,2.2-.85,4.16-1.16,5.88-.94,1.72.23,2.82.98,3.28,2.26.35.9.02,1.76-.98,2.57-1,.81-2.04,1.32-3.12,1.55-.96.21-1.52.1-1.68-.32-.08-.2,0-.49.25-.87.24-.38.32-.69.23-.91-.31-.79-1.05-.96-2.24-.5-1.44.56-1.95,1.37-1.54,2.44.28.73.88,1.18,1.81,1.34.92.16,1.97.18,3.15.04,1.18-.13,2.39-.21,3.63-.23,1.24-.02,2.4.26,3.49.84,1.08.59,1.89,1.56,2.41,2.91.5,1.3.6,2.56.3,3.8-.3,1.23-.89,2.3-1.78,3.19s-1.81,1.66-2.79,2.29c-.97.63-1.96,1.15-2.98,1.54-2.54.98-4.76,1.33-6.66,1.07-1.9-.27-3.14-1.09-3.7-2.46-.32-.82-.24-1.58.22-2.27.46-.7,1.21-1.26,2.24-1.69,1.06-.44,2.05-.63,2.96-.58.91.05,1.44.28,1.6.67.07.17,0,.45-.21.84-.21.39-.25.7-.12.95.14.37.44.58.91.65s1-.02,1.62-.26c1.47-.57,2.01-1.33,1.64-2.29Z"/><path class="cls-2" d="M285.34,203.71c-.27-.7-.89-1.18-1.86-1.42-.97-.24-2.07-.37-3.31-.38-1.24,0-2.49-.06-3.75-.15-1.27-.09-2.46-.47-3.59-1.12-1.13-.65-1.94-1.62-2.44-2.92-.54-1.41-.51-2.77.1-4.08.61-1.31,1.53-2.4,2.75-3.27,1.22-.88,2.64-1.63,4.28-2.26,2.2-.85,4.16-1.16,5.88-.94,1.72.23,2.82.98,3.28,2.26.35.9.02,1.76-.98,2.57-1,.81-2.04,1.32-3.12,1.55-.96.21-1.52.1-1.68-.32-.08-.2,0-.49.25-.87.24-.38.32-.69.23-.91-.3-.79-1.05-.96-2.23-.5-1.44.55-1.95,1.37-1.54,2.44.28.73.89,1.18,1.81,1.34s1.97.18,3.15.05c1.18-.13,2.39-.21,3.63-.23,1.24-.03,2.4.26,3.49.84,1.08.59,1.89,1.56,2.41,2.91.5,1.3.6,2.56.3,3.8-.3,1.23-.9,2.3-1.78,3.19s-1.82,1.66-2.79,2.29c-.97.63-1.96,1.15-2.98,1.54-2.54.98-4.76,1.33-6.66,1.07-1.9-.27-3.13-1.09-3.7-2.46-.32-.82-.24-1.58.22-2.27.46-.7,1.21-1.26,2.24-1.69,1.06-.44,2.05-.64,2.96-.58.91.05,1.45.28,1.6.67.07.17,0,.45-.21.84-.21.39-.25.7-.12.95.14.37.44.58.91.65.46.06,1-.02,1.62-.26,1.47-.57,2.02-1.33,1.64-2.29Z"/><path class="cls-2" d="M321.28,192.64c-1.16,1.78-2.7,3.04-4.62,3.78-1.72.67-3.46.8-5.23.42-1.77-.39-3.23-1.28-4.39-2.68-.02-.06-.05-.08-.08-.07.06,1.76-.42,3.41-1.44,4.96-1.03,1.55-2.3,2.61-3.82,3.2-1.64.63-3.2.56-4.68-.21-1.48-.77-2.59-2.1-3.32-3.99-.92-2.37-.83-4.44.25-6.22s2.63-3.06,4.67-3.84c1.41-.54,2.73-.75,3.95-.6-.16-.23-.34-.53-.54-.91-.52-.93-1.14-1.59-1.86-1.98-.72-.39-1.51-.4-2.37-.03-.76.29-1.67,1.34-2.72,3.14-1.14,2.16-2.09,3.39-2.86,3.68-.9.35-1.74-.46-2.5-2.44-1.11-2.88-1.08-4.54.11-5,.34-.13,1.03-.19,2.07-.17,1.04.02,1.75-.09,2.11-.33.76-.62,1.91-1.36,3.42-2.22,1.51-.86,2.79-1.49,3.84-1.9,1.58-.61,3.07-.8,4.47-.58,1.4.22,2.6.75,3.6,1.58s1.93,1.81,2.79,2.94c.86,1.13,1.63,2.26,2.31,3.41.69,1.14,1.34,2.17,1.97,3.08.63.91,1.27,1.54,1.93,1.91.66.36,1.32.32,1.99-.14.38-.28.69-.23.95.12.25.36.26.73.02,1.11ZM303.83,189.51c-.41-.3-.92-.33-1.54-.09-.62.24-1.08.7-1.36,1.38-.29.68-.25,1.48.11,2.42.28.73.66,1.25,1.14,1.55.47.3.97.32,1.48.06.7-.37,1.06-1.04,1.07-2.02.01-.97-.28-2.08-.89-3.3Z"/><path class="cls-2" d="M323.42,171.78c.07.17-.04.54-.33,1.1-.29.56-.32,1.08-.11,1.55.14.37.69,1.07,1.64,2.11s1.95,2.1,3,3.17c1.04,1.07,1.63,1.68,1.75,1.83-.02-.12.01-.99.08-2.61.07-1.62.1-3.09.1-4.41,0-1.33-.07-2.18-.18-2.55-.16-.49-.54-.85-1.15-1.09-.61-.23-.95-.44-1.01-.61-.05-.14-.04-.29.04-.45.08-.16.2-.27.34-.33l5.54-2.14c.37-.14.63-.02.78.38.09.23-.06.66-.44,1.31-.38.65-.57,1.14-.58,1.46l-.78,19.26c.01,1.29,0,2.37-.03,3.25-.04.87-.13,1.9-.29,3.08-.16,1.18-.38,2.16-.67,2.93-.29.77-.71,1.52-1.28,2.22-.57.71-1.25,1.21-2.04,1.52-1.16.45-2.3.5-3.42.15-1.12-.34-2.01-1.07-2.67-2.18-.49-.85-.65-1.72-.47-2.61.17-.89.68-1.51,1.53-1.83.4-.15.9.05,1.52.6.62.56,1.21.79,1.76.71.75-.16,1.35-.58,1.79-1.28s.67-1.49.68-2.4l-15.98-15.56c-.21-.21-.67-.43-1.39-.65-.72-.22-1.13-.46-1.22-.72-.15-.39-.05-.66.32-.8l12.35-4.77c.39-.15.67-.03.82.36Z"/></g></svg>