<svg viewBox="0 0 64 64" xmlns="http://www.w3.org/2000/svg" aria-labelledby="title"
aria-describedby="desc" role="img" xmlns:xlink="http://www.w3.org/1999/xlink">
  <title>Page</title>
  <desc>A solid styled icon from Orion Icon Library.</desc>
  <path fill="#fcb614"
  d="M2 22v34h60V22zm32 26H14a2 2 0 0 1 0-4h20a2 2 0 0 1 0 4zm16-8H14a2 2 0 0 1 0-4h36a2 2 0 0 1 0 4zm0-8H14a2 2 0 0 1 0-4h36a2 2 0 0 1 0 4z"
  data-name="layer2"></path>
  <path fill="#fcb614" d="M2 8v10h60V8zm6 7a2 2 0 1 1 2-2 2 2 0 0 1-2 2zm6 0a2 2 0 1 1 2-2 2 2 0 0 1-2 2zm6 0a2 2 0 1 1 2-2 2 2 0 0 1-2 2z"
  data-name="layer1"></path>
</svg>