<?xml version="1.0" encoding="UTF-8"?><svg id="Layer_2" xmlns="http://www.w3.org/2000/svg" viewBox="0 0 719.13 282.84"><defs><style>.cls-1{fill:#fff;}.cls-1,.cls-2{stroke-width:0px;}.cls-2{fill:#fcb614;}</style></defs><g id="Layer_1-2"><path class="cls-1" d="M235.29,274.11l.09-.2c1.08-2.44,3.86-3.68,6.37-2.77,2.82,1.01,5.88,1.6,8.69,1.6,3.76,0,5.1-.79,5.1-2.13,0-4.94-21.71-.95-21.71-15.59,0-7.29,6.11-13.24,18.29-13.24,3.23,0,6.52.42,9.53,1.28s4.47,4.08,3.3,6.9l-.05.11c-1.02,2.47-3.77,3.73-6.31,2.91-2.28-.74-4.48-1.1-6.59-1.1-3.87,0-5.1,1.12-5.1,2.47,0,4.71,21.71.79,21.71,15.26,0,7.18-6.11,13.24-18.29,13.24-4.19,0-8.41-.66-11.93-1.77-2.9-.91-4.33-4.18-3.1-6.96Z"/><path class="cls-1" d="M278.17,252.95h-1.23c-2.83,0-5.13-2.3-5.13-5.13h0c0-2.83,2.3-5.13,5.13-5.13h25.97c2.83,0,5.13,2.3,5.13,5.13h0c0,2.83-2.3,5.13-5.13,5.13h-1.23c-2.83,0-5.13,2.3-5.13,5.13v18.73c0,2.83-2.3,5.13-5.13,5.13h-2.97c-2.83,0-5.13-2.3-5.13-5.13v-18.73c0-2.83-2.3-5.13-5.13-5.13Z"/><path class="cls-1" d="M313.36,264.28v-16.46c0-2.83,2.3-5.13,5.13-5.13h2.97c2.83,0,5.13,2.3,5.13,5.13v16.07c0,6,2.3,8.25,6,8.25s6-2.24,6-8.25v-16.07c0-2.83,2.3-5.13,5.13-5.13h2.75c2.83,0,5.13,2.3,5.13,5.13v16.46c0,11.78-7.07,18.57-19.13,18.57s-19.13-6.79-19.13-18.57Z"/><path class="cls-1" d="M360.48,247.81c0-2.83,2.3-5.13,5.13-5.13h14.22c13.12,0,22.16,7.46,22.16,19.63s-9.03,19.63-22.16,19.63h-14.22c-2.83,0-5.13-2.3-5.13-5.13v-29ZM379.27,271.62c5.55,0,9.37-3.31,9.37-9.31s-3.81-9.31-9.37-9.31h-.42c-2.83,0-5.13,2.3-5.13,5.13v8.36c0,2.83,2.3,5.13,5.13,5.13h.42Z"/><path class="cls-1" d="M414.74,242.68h2.97c2.83,0,5.13,2.3,5.13,5.13v29c0,2.83-2.3,5.13-5.13,5.13h-2.97c-2.83,0-5.13-2.3-5.13-5.13v-29c0-2.83,2.3-5.13,5.13-5.13Z"/><path class="cls-1" d="M430.47,262.31c0-11.89,9.37-20.53,22.16-20.53s22.16,8.64,22.16,20.53-9.37,20.53-22.16,20.53-22.16-8.64-22.16-20.53ZM461.44,262.31c0-6.11-3.93-9.82-8.81-9.82s-8.81,3.7-8.81,9.82,3.93,9.82,8.81,9.82,8.81-3.7,8.81-9.82Z"/><path class="cls-2" d="M87.93,281.95H4.78c-1.27,0-2.39-.48-3.35-1.43-.96-.96-1.43-2.18-1.43-3.66s1.96-4.25,5.89-8.28c3.93-4.04,5.89-7.86,5.89-11.47V102.58c0-4.67-1.97-9.02-5.89-13.06-3.93-4.03-5.89-6.79-5.89-8.28,0-1.91,1.7-3.29,5.1-4.14,9.56-1.91,19.7-4.46,30.43-7.65,10.72-3.19,19.43-5.78,26.12-7.8,6.69-2.02,11.2-3.03,13.54-3.03,4.25,0,6.37,3.82,6.37,11.47v3.82c8.71-11.68,20.92-17.52,36.64-17.52,21.45,0,39.19,7.17,53.2,21.51,14.02,14.34,21.03,32.45,21.03,54.32s-7.28,40.57-21.82,54.8c-14.55,14.23-32.02,21.35-52.41,21.35-15.93,0-28.35-6.05-37.27-18.16v66.9c0,3.61,1.96,7.43,5.89,11.47,3.93,4.03,5.89,6.79,5.89,8.28s-.48,2.71-1.43,3.66c-.96.96-2.07,1.43-3.34,1.43ZM122.97,133.49c0-14.02-1.91-25.06-5.73-33.13-3.82-8.07-9.03-12.11-15.61-12.11s-11.36,3.77-14.97,11.31c-3.61,7.54-5.42,18-5.42,31.38s1.91,24.8,5.73,32.97c3.82,8.18,8.92,12.27,15.29,12.27s11.41-3.82,15.13-11.47c3.71-7.65,5.57-18.05,5.57-31.22Z"/><path class="cls-2" d="M462.26,208.04c-16.57,0-29.95-5.26-40.14-15.77-10.19-10.51-15.29-25.22-15.29-44.12v-64.67c0-5.94-4.99-8.92-14.97-8.92-.85,0-2.23.11-4.14.32-1.91.21-3.3.27-4.14.16-.85-.1-1.7-.58-2.55-1.43-.85-.85-1.27-2.33-1.27-4.46,0-2.55.11-4.35.32-5.42.21-1.06.85-2.07,1.91-3.03,1.06-.96,2.76-1.64,5.1-2.07,7.01-1.06,14.18-2.76,21.5-5.1,7.33-2.33,14.97-5.46,22.94-9.4,7.96-3.93,14.5-9.13,19.59-15.61,5.1-6.48,7.75-13.64,7.96-21.5,0-4.67,1.38-7.01,4.14-7.01,4.03,0,6.64.8,7.81,2.39,1.17,1.59,1.75,5.05,1.75,10.35,0,17.42.1,29.53.32,36.32.21,5.1,7.33,7.65,21.35,7.65.85,0,1.75-.05,2.71-.16.96-.11,1.7-.16,2.23-.16s1.12.05,1.75.16c.64.11,1.12.37,1.43.8.32.43.58,1.06.8,1.91.21.85.32,1.91.32,3.19,0,8.28-5.53,12.22-16.57,11.79-.85,0-2.76-.11-5.73-.32-2.98-.21-4.78-.32-5.42-.32v90.48c0,9.98,3.19,14.97,9.56,14.97,7.22,0,12.11-3.82,14.66-11.47.42-.85.96-2.02,1.59-3.5.64-1.48,1.12-2.6,1.43-3.35.32-.74.74-1.54,1.28-2.39.53-.85,1.06-1.48,1.59-1.91.53-.42,1.11-.64,1.75-.64,3.61,0,5.42,2.23,5.42,6.69,0,12.32-4.51,22.99-13.54,32.02-9.03,9.03-21.5,13.54-37.43,13.54Z"/><path class="cls-2" d="M716.17,194.66c-12.11,8.71-25.38,13.06-39.82,13.06-12.96,0-24.75-3.5-35.36-10.51-10.62-7.01-17.95-16.57-21.98-28.67,0-.42-.11-.64-.32-.64-4.04,11.68-11.37,21.29-21.98,28.83-10.62,7.54-21.66,11.31-33.13,11.31-12.32,0-22.36-4.41-30.11-13.22-7.76-8.81-11.63-20.33-11.63-34.57,0-17.84,5.79-31.22,17.36-40.14,11.57-8.92,25.01-13.38,40.3-13.38,10.62,0,19.75,2.02,27.4,6.05-.43-1.91-.85-4.35-1.27-7.33-1.07-7.43-3.46-13.33-7.17-17.68-3.72-4.35-8.87-6.42-15.45-6.21-5.74,0-14.34,4.57-25.81,13.7-12.96,11.26-22.3,16.89-28.04,16.89-6.8,0-10.2-7.43-10.2-22.3,0-21.66,4.46-32.5,13.38-32.5,2.55,0,7.22,1.38,14.02,4.14,6.79,2.76,11.68,3.82,14.66,3.19,6.58-2.12,15.93-4.09,28.04-5.89,12.11-1.8,22.09-2.71,29.95-2.71,11.89,0,22.14,2.5,30.74,7.49,8.6,4.99,15.13,11.47,19.59,19.43,4.46,7.96,8.07,16.73,10.83,26.28,2.76,9.56,4.94,18.96,6.53,28.2s3.29,17.63,5.1,25.17c1.8,7.54,4.41,13.33,7.8,17.36,3.4,4.04,7.86,5.42,13.38,4.14,3.19-.85,5.15.21,5.89,3.19.74,2.98-.16,5.42-2.71,7.33ZM609.76,129.98c-1.91-2.97-5.21-4.46-9.88-4.46s-8.82,1.86-12.43,5.58c-3.61,3.72-5.42,9.08-5.42,16.09,0,5.53,1.17,9.88,3.5,13.06,2.33,3.19,5.52,4.57,9.56,4.14,5.52-.64,9.56-4.14,12.11-10.51,2.55-6.37,3.4-14.34,2.55-23.89Z"/><path class="cls-2" d="M359.2,76.78c-17.31-13.59-39.77-20.39-67.38-20.39s-49.22,6.8-66.11,20.39c-16.88,13.59-25.33,32.07-25.33,55.43s8.81,40.83,26.44,54.96c17.63,14.13,39.4,21.19,65.31,21.19s48.69-7.01,66.43-21.03c17.73-14.02,26.6-32.39,26.6-55.12s-8.66-41.84-25.96-55.43ZM290.76,177.62c-8.7-1.96-14.84-10.25-18.4-24.88-1.37-5.64-2.2-11.43-2.49-17.36-.46-9.45.45-19.26,2.74-29.45,1.59-7.04,4.22-12.22,7.91-15.53,1.15-1.03,2.36-1.83,3.62-2.43,2.76-1.33,5.78-1.66,9.06-.92,8.7,1.96,14.88,10.27,18.55,24.92,1.41,5.63,2.26,11.4,2.58,17.3.51,9.48-.38,19.32-2.68,29.54-1.59,7.05-4.22,12.22-7.91,15.53-1.16,1.04-2.4,1.84-3.69,2.44-2.8,1.31-5.89,1.6-9.3.84Z"/></g></svg>